<svg xmlns="http://www.w3.org/2000/svg" xmlns:xlink="http://www.w3.org/1999/xlink" width="1080" zoomAndPan="magnify" viewBox="0 0 810 809.999993" height="1080" preserveAspectRatio="xMidYMid meet" version="1.0"><defs><clipPath id="1395638ae2"><path d="M 252 505 L 558 505 L 558 658.109375 L 252 658.109375 Z M 252 505 " clip-rule="nonzero"/></clipPath></defs><rect x="-81" width="972" fill="#ffffff" y="-80.999999" height="971.999992" fill-opacity="1"/><rect x="-81" width="972" fill="#ffffff" y="-80.999999" height="971.999992" fill-opacity="1"/><g clip-path="url(#1395638ae2)"><path fill="#1ad1a5" d="M 328.742188 505.625 L 481.226562 505.625 C 482.472656 505.625 483.71875 505.652344 484.964844 505.714844 C 486.214844 505.777344 487.457031 505.867188 488.699219 505.992188 C 489.941406 506.113281 491.179688 506.265625 492.414062 506.449219 C 493.648438 506.632812 494.875 506.84375 496.101562 507.089844 C 497.324219 507.332031 498.539062 507.605469 499.75 507.90625 C 500.960938 508.210938 502.164062 508.542969 503.359375 508.90625 C 504.550781 509.269531 505.734375 509.660156 506.910156 510.082031 C 508.085938 510.5 509.25 510.949219 510.402344 511.425781 C 511.554688 511.90625 512.695312 512.410156 513.824219 512.941406 C 514.953125 513.476562 516.066406 514.039062 517.167969 514.625 C 518.265625 515.214844 519.351562 515.828125 520.421875 516.46875 C 521.492188 517.113281 522.546875 517.777344 523.582031 518.472656 C 524.621094 519.164062 525.640625 519.882812 526.644531 520.628906 C 527.644531 521.371094 528.628906 522.136719 529.59375 522.929688 C 530.558594 523.722656 531.503906 524.535156 532.425781 525.375 C 533.351562 526.210938 534.253906 527.070312 535.136719 527.953125 C 536.019531 528.835938 536.878906 529.738281 537.71875 530.664062 C 538.554688 531.589844 539.371094 532.535156 540.160156 533.496094 C 540.953125 534.460938 541.722656 535.445312 542.464844 536.449219 C 543.207031 537.449219 543.925781 538.46875 544.617188 539.507812 C 545.3125 540.546875 545.980469 541.597656 546.621094 542.667969 C 547.261719 543.738281 547.878906 544.824219 548.464844 545.925781 C 549.054688 547.027344 549.613281 548.140625 550.148438 549.269531 C 550.679688 550.394531 551.1875 551.535156 551.664062 552.6875 C 552.140625 553.839844 552.589844 555.003906 553.011719 556.179688 C 553.433594 557.355469 553.824219 558.539062 554.183594 559.734375 C 554.546875 560.925781 554.878906 562.128906 555.183594 563.339844 C 555.488281 564.550781 555.757812 565.769531 556.003906 566.992188 C 556.246094 568.214844 556.460938 569.445312 556.644531 570.679688 C 556.824219 571.914062 556.980469 573.152344 557.101562 574.394531 C 557.222656 575.632812 557.316406 576.878906 557.375 578.125 C 557.4375 579.371094 557.46875 580.617188 557.46875 581.867188 C 557.46875 583.113281 557.4375 584.359375 557.375 585.605469 C 557.316406 586.851562 557.222656 588.097656 557.101562 589.339844 C 556.980469 590.582031 556.824219 591.820312 556.644531 593.054688 C 556.460938 594.285156 556.246094 595.515625 556.003906 596.738281 C 555.757812 597.964844 555.488281 599.179688 555.183594 600.390625 C 554.878906 601.601562 554.546875 602.804688 554.183594 603.996094 C 553.824219 605.191406 553.433594 606.375 553.011719 607.550781 C 552.589844 608.726562 552.140625 609.890625 551.664062 611.042969 C 551.1875 612.195312 550.679688 613.335938 550.148438 614.464844 C 549.613281 615.589844 549.054688 616.707031 548.464844 617.804688 C 547.878906 618.90625 547.261719 619.992188 546.621094 621.0625 C 545.980469 622.132812 545.3125 623.1875 544.617188 624.222656 C 543.925781 625.261719 543.207031 626.28125 542.464844 627.285156 C 541.722656 628.285156 540.953125 629.269531 540.160156 630.234375 C 539.371094 631.199219 538.554688 632.140625 537.71875 633.066406 C 536.878906 633.992188 536.019531 634.894531 535.136719 635.777344 C 534.253906 636.660156 533.351562 637.519531 532.425781 638.359375 C 531.503906 639.195312 530.558594 640.011719 529.59375 640.800781 C 528.628906 641.59375 527.644531 642.359375 526.644531 643.105469 C 525.640625 643.847656 524.621094 644.566406 523.582031 645.257812 C 522.546875 645.953125 521.492188 646.621094 520.421875 647.261719 C 519.351562 647.902344 518.265625 648.515625 517.167969 649.105469 C 516.066406 649.695312 514.953125 650.253906 513.824219 650.789062 C 512.695312 651.320312 511.554688 651.828125 510.402344 652.304688 C 509.25 652.78125 508.085938 653.230469 506.910156 653.652344 C 505.734375 654.070312 504.550781 654.464844 503.359375 654.824219 C 502.164062 655.1875 500.960938 655.519531 499.75 655.824219 C 498.539062 656.125 497.324219 656.398438 496.101562 656.644531 C 494.875 656.886719 493.648438 657.101562 492.414062 657.28125 C 491.179688 657.464844 489.941406 657.617188 488.699219 657.742188 C 487.457031 657.863281 486.214844 657.957031 484.964844 658.015625 C 483.71875 658.078125 482.472656 658.109375 481.226562 658.109375 L 328.742188 658.109375 C 327.492188 658.109375 326.246094 658.078125 325 658.015625 C 323.753906 657.957031 322.507812 657.863281 321.269531 657.742188 C 320.027344 657.617188 318.789062 657.464844 317.554688 657.28125 C 316.320312 657.101562 315.089844 656.886719 313.867188 656.644531 C 312.644531 656.398438 311.425781 656.125 310.214844 655.824219 C 309.003906 655.519531 307.804688 655.1875 306.609375 654.824219 C 305.414062 654.464844 304.230469 654.070312 303.054688 653.652344 C 301.878906 653.230469 300.714844 652.78125 299.5625 652.304688 C 298.410156 651.828125 297.269531 651.320312 296.144531 650.789062 C 295.015625 650.253906 293.902344 649.695312 292.800781 649.105469 C 291.699219 648.515625 290.613281 647.902344 289.542969 647.261719 C 288.472656 646.621094 287.421875 645.953125 286.382812 645.257812 C 285.34375 644.566406 284.324219 643.847656 283.324219 643.105469 C 282.320312 642.359375 281.335938 641.59375 280.371094 640.800781 C 279.410156 640.011719 278.464844 639.195312 277.539062 638.359375 C 276.613281 637.519531 275.710938 636.660156 274.828125 635.777344 C 273.945312 634.894531 273.085938 633.992188 272.25 633.066406 C 271.410156 632.140625 270.597656 631.199219 269.804688 630.234375 C 269.011719 629.269531 268.246094 628.285156 267.503906 627.285156 C 266.757812 626.28125 266.039062 625.261719 265.347656 624.222656 C 264.652344 623.1875 263.988281 622.132812 263.34375 621.0625 C 262.703125 619.992188 262.089844 618.90625 261.5 617.804688 C 260.914062 616.707031 260.351562 615.589844 259.816406 614.464844 C 259.285156 613.335938 258.78125 612.195312 258.300781 611.042969 C 257.824219 609.890625 257.375 608.726562 256.957031 607.550781 C 256.535156 606.375 256.144531 605.191406 255.78125 603.996094 C 255.417969 602.804688 255.085938 601.601562 254.78125 600.390625 C 254.480469 599.179688 254.207031 597.964844 253.964844 596.738281 C 253.71875 595.515625 253.507812 594.285156 253.324219 593.054688 C 253.140625 591.820312 252.988281 590.582031 252.867188 589.339844 C 252.742188 588.097656 252.652344 586.851562 252.589844 585.605469 C 252.527344 584.359375 252.5 583.113281 252.5 581.867188 C 252.5 580.617188 252.527344 579.371094 252.589844 578.125 C 252.652344 576.878906 252.742188 575.632812 252.867188 574.394531 C 252.988281 573.152344 253.140625 571.914062 253.324219 570.679688 C 253.507812 569.445312 253.71875 568.214844 253.964844 566.992188 C 254.207031 565.769531 254.480469 564.550781 254.78125 563.339844 C 255.085938 562.128906 255.417969 560.925781 255.78125 559.734375 C 256.144531 558.539062 256.535156 557.355469 256.957031 556.179688 C 257.375 555.003906 257.824219 553.839844 258.300781 552.6875 C 258.78125 551.535156 259.285156 550.394531 259.816406 549.269531 C 260.351562 548.140625 260.914062 547.027344 261.5 545.925781 C 262.089844 544.824219 262.703125 543.738281 263.34375 542.667969 C 263.988281 541.597656 264.652344 540.546875 265.347656 539.507812 C 266.039062 538.46875 266.757812 537.449219 267.503906 536.449219 C 268.246094 535.445312 269.011719 534.460938 269.804688 533.496094 C 270.597656 532.535156 271.410156 531.589844 272.25 530.664062 C 273.085938 529.738281 273.945312 528.835938 274.828125 527.953125 C 275.710938 527.070312 276.613281 526.210938 277.539062 525.375 C 278.464844 524.535156 279.410156 523.722656 280.371094 522.929688 C 281.335938 522.136719 282.320312 521.371094 283.324219 520.628906 C 284.324219 519.882812 285.34375 519.164062 286.382812 518.472656 C 287.421875 517.777344 288.472656 517.113281 289.542969 516.46875 C 290.613281 515.828125 291.699219 515.214844 292.800781 514.625 C 293.902344 514.039062 295.015625 513.476562 296.144531 512.941406 C 297.269531 512.410156 298.410156 511.90625 299.5625 511.425781 C 300.714844 510.949219 301.878906 510.5 303.054688 510.082031 C 304.230469 509.660156 305.414062 509.269531 306.609375 508.90625 C 307.804688 508.542969 309.003906 508.210938 310.214844 507.90625 C 311.425781 507.605469 312.644531 507.332031 313.867188 507.089844 C 315.089844 506.84375 316.320312 506.632812 317.554688 506.449219 C 318.789062 506.265625 320.027344 506.113281 321.269531 505.992188 C 322.507812 505.867188 323.753906 505.777344 325 505.714844 C 326.246094 505.652344 327.492188 505.625 328.742188 505.625 Z M 328.742188 505.625 " fill-opacity="1" fill-rule="nonzero"/></g><path fill="#000000" d="M 563.566406 316.542969 C 563.566406 319.136719 563.503906 321.730469 563.375 324.324219 C 563.25 326.914062 563.058594 329.503906 562.804688 332.085938 C 562.550781 334.667969 562.230469 337.242188 561.851562 339.8125 C 561.46875 342.378906 561.027344 344.933594 560.519531 347.480469 C 560.015625 350.027344 559.445312 352.558594 558.816406 355.074219 C 558.183594 357.59375 557.492188 360.09375 556.738281 362.578125 C 555.984375 365.058594 555.171875 367.523438 554.296875 369.96875 C 553.421875 372.410156 552.488281 374.832031 551.496094 377.230469 C 550.503906 379.628906 549.453125 382 548.339844 384.34375 C 547.230469 386.691406 546.066406 389.007812 544.84375 391.296875 C 543.617188 393.585938 542.339844 395.84375 541.003906 398.070312 C 539.671875 400.296875 538.28125 402.488281 536.839844 404.648438 C 535.398438 406.804688 533.90625 408.925781 532.359375 411.011719 C 530.8125 413.09375 529.21875 415.140625 527.570312 417.148438 C 525.925781 419.152344 524.230469 421.117188 522.488281 423.039062 C 520.742188 424.964844 518.953125 426.84375 517.121094 428.679688 C 515.285156 430.511719 513.40625 432.300781 511.480469 434.046875 C 509.558594 435.789062 507.59375 437.484375 505.589844 439.128906 C 503.582031 440.777344 501.535156 442.371094 499.453125 443.917969 C 497.367188 445.464844 495.246094 446.957031 493.089844 448.398438 C 490.929688 449.84375 488.738281 451.230469 486.511719 452.5625 C 484.285156 453.898438 482.027344 455.175781 479.738281 456.402344 C 477.449219 457.625 475.132812 458.789062 472.785156 459.902344 C 470.441406 461.011719 468.070312 462.0625 465.671875 463.054688 C 463.273438 464.046875 460.851562 464.980469 458.410156 465.855469 C 455.964844 466.730469 453.5 467.542969 451.019531 468.296875 C 448.535156 469.050781 446.035156 469.742188 443.515625 470.375 C 441 471.003906 438.46875 471.574219 435.921875 472.078125 C 433.375 472.585938 430.820312 473.027344 428.253906 473.410156 C 425.683594 473.789062 423.109375 474.109375 420.527344 474.363281 C 417.945312 474.617188 415.355469 474.808594 412.765625 474.933594 C 410.171875 475.0625 407.578125 475.125 404.984375 475.125 C 402.386719 475.125 399.792969 475.0625 397.203125 474.933594 C 394.609375 474.808594 392.023438 474.617188 389.4375 474.363281 C 386.855469 474.109375 384.28125 473.789062 381.714844 473.410156 C 379.148438 473.027344 376.589844 472.585938 374.046875 472.078125 C 371.5 471.574219 368.96875 471.003906 366.449219 470.375 C 363.933594 469.742188 361.433594 469.050781 358.949219 468.296875 C 356.464844 467.542969 354 466.730469 351.558594 465.855469 C 349.113281 464.980469 346.695312 464.046875 344.296875 463.054688 C 341.898438 462.0625 339.527344 461.011719 337.179688 459.902344 C 334.832031 458.789062 332.515625 457.625 330.226562 456.402344 C 327.9375 455.175781 325.679688 453.898438 323.453125 452.5625 C 321.226562 451.230469 319.035156 449.84375 316.878906 448.398438 C 314.71875 446.957031 312.597656 445.464844 310.515625 443.917969 C 308.429688 442.371094 306.382812 440.777344 304.378906 439.128906 C 302.371094 437.484375 300.40625 435.789062 298.484375 434.046875 C 296.5625 432.300781 294.683594 430.511719 292.847656 428.679688 C 291.011719 426.84375 289.222656 424.964844 287.480469 423.039062 C 285.738281 421.117188 284.042969 419.152344 282.394531 417.148438 C 280.75 415.140625 279.152344 413.09375 277.605469 411.011719 C 276.0625 408.925781 274.566406 406.804688 273.125 404.648438 C 271.683594 402.488281 270.296875 400.296875 268.960938 398.070312 C 267.625 395.84375 266.347656 393.585938 265.125 391.296875 C 263.902344 389.007812 262.734375 386.691406 261.625 384.34375 C 260.515625 382 259.464844 379.628906 258.46875 377.230469 C 257.476562 374.832031 256.542969 372.410156 255.667969 369.96875 C 254.792969 367.523438 253.980469 365.058594 253.226562 362.578125 C 252.472656 360.09375 251.78125 357.59375 251.152344 355.074219 C 250.519531 352.558594 249.953125 350.027344 249.445312 347.480469 C 248.941406 344.933594 248.496094 342.378906 248.117188 339.8125 C 247.734375 337.242188 247.417969 334.667969 247.164062 332.085938 C 246.90625 329.503906 246.71875 326.914062 246.589844 324.324219 C 246.460938 321.730469 246.398438 319.136719 246.398438 316.542969 C 246.398438 313.945312 246.460938 311.351562 246.589844 308.761719 C 246.71875 306.167969 246.90625 303.582031 247.164062 300.996094 C 247.417969 298.414062 247.734375 295.839844 248.117188 293.273438 C 248.496094 290.707031 248.941406 288.148438 249.445312 285.605469 C 249.953125 283.058594 250.519531 280.527344 251.152344 278.007812 C 251.78125 275.492188 252.472656 272.992188 253.226562 270.507812 C 253.980469 268.023438 254.792969 265.558594 255.667969 263.117188 C 256.542969 260.671875 257.476562 258.253906 258.46875 255.855469 C 259.464844 253.457031 260.515625 251.085938 261.625 248.738281 C 262.734375 246.390625 263.902344 244.074219 265.125 241.785156 C 266.347656 239.496094 267.625 237.238281 268.960938 235.011719 C 270.296875 232.789062 271.683594 230.59375 273.125 228.4375 C 274.566406 226.277344 276.0625 224.15625 277.605469 222.074219 C 279.152344 219.988281 280.75 217.941406 282.394531 215.9375 C 284.042969 213.929688 285.738281 211.964844 287.480469 210.042969 C 289.222656 208.121094 291.011719 206.242188 292.847656 204.40625 C 294.683594 202.570312 296.5625 200.78125 298.484375 199.039062 C 300.40625 197.296875 302.371094 195.601562 304.378906 193.953125 C 306.382812 192.308594 308.429688 190.710938 310.515625 189.164062 C 312.597656 187.621094 314.71875 186.125 316.878906 184.683594 C 319.035156 183.242188 321.226562 181.855469 323.453125 180.519531 C 325.679688 179.183594 327.9375 177.90625 330.226562 176.683594 C 332.515625 175.460938 334.832031 174.292969 337.179688 173.183594 C 339.527344 172.074219 341.898438 171.023438 344.296875 170.027344 C 346.695312 169.035156 349.113281 168.101562 351.558594 167.226562 C 354 166.351562 356.464844 165.539062 358.949219 164.785156 C 361.433594 164.03125 363.933594 163.339844 366.449219 162.710938 C 368.96875 162.078125 371.5 161.511719 374.046875 161.003906 C 376.589844 160.5 379.148438 160.054688 381.714844 159.675781 C 384.28125 159.292969 386.855469 158.976562 389.4375 158.722656 C 392.023438 158.46875 394.609375 158.277344 397.203125 158.148438 C 399.792969 158.019531 402.386719 157.957031 404.984375 157.957031 C 407.578125 157.957031 410.171875 158.019531 412.765625 158.148438 C 415.355469 158.277344 417.945312 158.46875 420.527344 158.722656 C 423.109375 158.976562 425.683594 159.292969 428.253906 159.675781 C 430.820312 160.054688 433.375 160.5 435.921875 161.003906 C 438.46875 161.511719 441 162.078125 443.515625 162.710938 C 446.035156 163.339844 448.535156 164.03125 451.019531 164.785156 C 453.5 165.539062 455.964844 166.351562 458.410156 167.226562 C 460.851562 168.101562 463.273438 169.035156 465.671875 170.027344 C 468.070312 171.023438 470.441406 172.074219 472.785156 173.183594 C 475.132812 174.292969 477.449219 175.460938 479.738281 176.683594 C 482.027344 177.90625 484.285156 179.183594 486.511719 180.519531 C 488.738281 181.855469 490.929688 183.242188 493.089844 184.683594 C 495.246094 186.125 497.367188 187.621094 499.453125 189.164062 C 501.535156 190.710938 503.582031 192.308594 505.589844 193.953125 C 507.59375 195.601562 509.558594 197.296875 511.480469 199.039062 C 513.40625 200.78125 515.285156 202.570312 517.121094 204.40625 C 518.953125 206.242188 520.742188 208.121094 522.488281 210.042969 C 524.230469 211.964844 525.925781 213.929688 527.570312 215.9375 C 529.21875 217.945312 530.8125 219.988281 532.359375 222.074219 C 533.90625 224.15625 535.398438 226.277344 536.839844 228.4375 C 538.28125 230.59375 539.671875 232.789062 541.003906 235.011719 C 542.339844 237.238281 543.617188 239.496094 544.84375 241.785156 C 546.066406 244.074219 547.230469 246.390625 548.339844 248.738281 C 549.453125 251.085938 550.503906 253.457031 551.496094 255.855469 C 552.488281 258.253906 553.421875 260.671875 554.296875 263.117188 C 555.171875 265.558594 555.984375 268.023438 556.738281 270.507812 C 557.492188 272.992188 558.183594 275.492188 558.816406 278.007812 C 559.445312 280.527344 560.015625 283.058594 560.519531 285.605469 C 561.027344 288.148438 561.46875 290.707031 561.851562 293.273438 C 562.230469 295.839844 562.550781 298.414062 562.804688 300.996094 C 563.058594 303.582031 563.25 306.167969 563.375 308.761719 C 563.503906 311.351562 563.566406 313.945312 563.566406 316.542969 Z M 563.566406 316.542969 " fill-opacity="0.3" fill-rule="nonzero"/><path fill="#ffffff" d="M 557.46875 316.542969 C 557.46875 319.039062 557.40625 321.53125 557.285156 324.023438 C 557.160156 326.515625 556.976562 329.003906 556.734375 331.488281 C 556.488281 333.972656 556.183594 336.449219 555.816406 338.917969 C 555.453125 341.382812 555.023438 343.84375 554.539062 346.289062 C 554.050781 348.738281 553.503906 351.171875 552.898438 353.59375 C 552.292969 356.011719 551.625 358.417969 550.902344 360.804688 C 550.175781 363.195312 549.394531 365.5625 548.554688 367.914062 C 547.714844 370.261719 546.816406 372.589844 545.859375 374.894531 C 544.90625 377.199219 543.894531 379.480469 542.828125 381.738281 C 541.761719 383.992188 540.640625 386.222656 539.460938 388.421875 C 538.285156 390.625 537.058594 392.792969 535.773438 394.933594 C 534.492188 397.074219 533.15625 399.183594 531.769531 401.257812 C 530.382812 403.332031 528.945312 405.371094 527.460938 407.378906 C 525.972656 409.382812 524.4375 411.347656 522.855469 413.277344 C 521.273438 415.207031 519.644531 417.09375 517.96875 418.945312 C 516.292969 420.792969 514.570312 422.601562 512.804688 424.363281 C 511.042969 426.128906 509.234375 427.851562 507.386719 429.527344 C 505.535156 431.203125 503.648438 432.832031 501.71875 434.414062 C 499.789062 435.996094 497.824219 437.53125 495.820312 439.019531 C 493.8125 440.503906 491.773438 441.941406 489.699219 443.328125 C 487.625 444.714844 485.515625 446.050781 483.375 447.332031 C 481.234375 448.617188 479.066406 449.84375 476.863281 451.023438 C 474.664062 452.199219 472.433594 453.320312 470.179688 454.386719 C 467.921875 455.453125 465.640625 456.464844 463.335938 457.417969 C 461.03125 458.375 458.703125 459.273438 456.355469 460.113281 C 454.003906 460.953125 451.636719 461.738281 449.246094 462.460938 C 446.859375 463.183594 444.453125 463.851562 442.035156 464.457031 C 439.613281 465.0625 437.179688 465.609375 434.730469 466.097656 C 432.285156 466.582031 429.824219 467.011719 427.355469 467.375 C 424.890625 467.742188 422.414062 468.046875 419.929688 468.292969 C 417.445312 468.539062 414.957031 468.722656 412.464844 468.84375 C 409.972656 468.964844 407.480469 469.027344 404.984375 469.027344 C 402.488281 469.027344 399.992188 468.964844 397.5 468.84375 C 395.007812 468.722656 392.519531 468.539062 390.035156 468.292969 C 387.554688 468.046875 385.078125 467.742188 382.609375 467.375 C 380.140625 467.011719 377.683594 466.582031 375.234375 466.097656 C 372.789062 465.609375 370.351562 465.0625 367.933594 464.457031 C 365.511719 463.851562 363.105469 463.183594 360.71875 462.460938 C 358.332031 461.738281 355.960938 460.953125 353.613281 460.113281 C 351.261719 459.273438 348.933594 458.375 346.628906 457.417969 C 344.324219 456.464844 342.042969 455.453125 339.789062 454.386719 C 337.53125 453.320312 335.304688 452.199219 333.101562 451.023438 C 330.902344 449.84375 328.730469 448.617188 326.589844 447.332031 C 324.449219 446.050781 322.34375 444.714844 320.265625 443.328125 C 318.191406 441.941406 316.152344 440.503906 314.148438 439.019531 C 312.144531 437.53125 310.175781 435.996094 308.246094 434.414062 C 306.320312 432.832031 304.429688 431.203125 302.582031 429.527344 C 300.730469 427.851562 298.925781 426.128906 297.160156 424.363281 C 295.394531 422.601562 293.675781 420.792969 292 418.945312 C 290.324219 417.09375 288.695312 415.207031 287.109375 413.277344 C 285.527344 411.347656 283.992188 409.382812 282.507812 407.378906 C 281.019531 405.371094 279.582031 403.332031 278.195312 401.257812 C 276.808594 399.183594 275.476562 397.074219 274.191406 394.933594 C 272.910156 392.792969 271.679688 390.625 270.503906 388.421875 C 269.328125 386.222656 268.207031 383.992188 267.136719 381.738281 C 266.070312 379.480469 265.058594 377.199219 264.105469 374.894531 C 263.152344 372.589844 262.253906 370.261719 261.410156 367.914062 C 260.570312 365.5625 259.789062 363.195312 259.0625 360.804688 C 258.339844 358.417969 257.675781 356.011719 257.066406 353.59375 C 256.460938 351.171875 255.914062 348.738281 255.429688 346.289062 C 254.941406 343.84375 254.515625 341.382812 254.148438 338.917969 C 253.78125 336.449219 253.476562 333.972656 253.234375 331.488281 C 252.988281 329.003906 252.804688 326.515625 252.683594 324.023438 C 252.558594 321.53125 252.5 319.039062 252.5 316.542969 C 252.5 314.046875 252.558594 311.550781 252.683594 309.058594 C 252.804688 306.566406 252.988281 304.078125 253.234375 301.597656 C 253.476562 299.113281 253.78125 296.636719 254.148438 294.167969 C 254.515625 291.699219 254.941406 289.242188 255.429688 286.792969 C 255.914062 284.347656 256.460938 281.910156 257.066406 279.492188 C 257.675781 277.070312 258.339844 274.664062 259.0625 272.277344 C 259.789062 269.890625 260.570312 267.519531 261.410156 265.171875 C 262.253906 262.820312 263.152344 260.492188 264.105469 258.1875 C 265.058594 255.882812 266.070312 253.601562 267.136719 251.347656 C 268.207031 249.089844 269.328125 246.863281 270.503906 244.660156 C 271.679688 242.460938 272.910156 240.289062 274.191406 238.148438 C 275.476562 236.007812 276.808594 233.902344 278.195312 231.824219 C 279.582031 229.75 281.019531 227.710938 282.507812 225.707031 C 283.992188 223.703125 285.527344 221.734375 287.109375 219.804688 C 288.695312 217.878906 290.324219 215.988281 292 214.140625 C 293.675781 212.289062 295.394531 210.484375 297.160156 208.71875 C 298.925781 206.953125 300.730469 205.234375 302.582031 203.558594 C 304.429688 201.882812 306.320312 200.253906 308.246094 198.667969 C 310.175781 197.085938 312.144531 195.550781 314.148438 194.066406 C 316.152344 192.578125 318.191406 191.140625 320.265625 189.753906 C 322.34375 188.367188 324.449219 187.035156 326.589844 185.75 C 328.730469 184.46875 330.902344 183.238281 333.101562 182.0625 C 335.304688 180.886719 337.53125 179.765625 339.789062 178.695312 C 342.042969 177.628906 344.324219 176.621094 346.628906 175.664062 C 348.933594 174.710938 351.261719 173.8125 353.613281 172.96875 C 355.960938 172.128906 358.332031 171.347656 360.71875 170.621094 C 363.105469 169.898438 365.511719 169.234375 367.933594 168.625 C 370.351562 168.019531 372.789062 167.472656 375.234375 166.988281 C 377.683594 166.5 380.140625 166.074219 382.609375 165.707031 C 385.078125 165.339844 387.554688 165.035156 390.035156 164.792969 C 392.519531 164.546875 395.007812 164.363281 397.5 164.242188 C 399.992188 164.117188 402.488281 164.058594 404.984375 164.058594 C 407.480469 164.058594 409.972656 164.117188 412.464844 164.242188 C 414.957031 164.363281 417.445312 164.546875 419.929688 164.792969 C 422.414062 165.035156 424.890625 165.339844 427.355469 165.707031 C 429.824219 166.074219 432.285156 166.5 434.730469 166.988281 C 437.179688 167.472656 439.613281 168.019531 442.035156 168.625 C 444.453125 169.234375 446.859375 169.898438 449.246094 170.621094 C 451.636719 171.347656 454.003906 172.128906 456.355469 172.96875 C 458.703125 173.8125 461.03125 174.710938 463.335938 175.664062 C 465.640625 176.621094 467.921875 177.628906 470.179688 178.695312 C 472.433594 179.765625 474.664062 180.886719 476.863281 182.0625 C 479.066406 183.238281 481.234375 184.46875 483.375 185.75 C 485.515625 187.035156 487.625 188.367188 489.699219 189.753906 C 491.773438 191.140625 493.8125 192.578125 495.820312 194.066406 C 497.824219 195.550781 499.789062 197.085938 501.71875 198.667969 C 503.648438 200.253906 505.535156 201.882812 507.386719 203.558594 C 509.234375 205.234375 511.042969 206.953125 512.804688 208.71875 C 514.570312 210.484375 516.292969 212.289062 517.96875 214.140625 C 519.644531 215.988281 521.273438 217.878906 522.855469 219.804688 C 524.4375 221.734375 525.972656 223.703125 527.460938 225.707031 C 528.945312 227.710938 530.382812 229.75 531.769531 231.824219 C 533.15625 233.902344 534.492188 236.007812 535.773438 238.148438 C 537.058594 240.289062 538.285156 242.460938 539.460938 244.660156 C 540.640625 246.863281 541.761719 249.089844 542.828125 251.347656 C 543.894531 253.601562 544.90625 255.882812 545.859375 258.1875 C 546.816406 260.492188 547.714844 262.820312 548.554688 265.171875 C 549.394531 267.519531 550.179688 269.890625 550.902344 272.277344 C 551.625 274.664062 552.292969 277.070312 552.898438 279.492188 C 553.503906 281.910156 554.050781 284.347656 554.539062 286.792969 C 555.023438 289.242188 555.453125 291.699219 555.816406 294.167969 C 556.183594 296.636719 556.488281 299.113281 556.734375 301.597656 C 556.976562 304.078125 557.160156 306.566406 557.285156 309.058594 C 557.40625 311.550781 557.46875 314.046875 557.46875 316.542969 Z M 557.46875 316.542969 " fill-opacity="1" fill-rule="nonzero"/><path fill="#ff9903" d="M 473.296875 316.542969 C 473.296875 317.660156 473.269531 318.777344 473.214844 319.894531 C 473.160156 321.011719 473.078125 322.125 472.96875 323.238281 C 472.859375 324.351562 472.722656 325.460938 472.558594 326.566406 C 472.394531 327.671875 472.203125 328.773438 471.984375 329.871094 C 471.765625 330.964844 471.519531 332.054688 471.25 333.140625 C 470.976562 334.226562 470.679688 335.300781 470.355469 336.371094 C 470.03125 337.441406 469.679688 338.503906 469.304688 339.554688 C 468.925781 340.609375 468.523438 341.652344 468.097656 342.683594 C 467.667969 343.71875 467.214844 344.738281 466.738281 345.75 C 466.257812 346.761719 465.757812 347.757812 465.230469 348.746094 C 464.703125 349.730469 464.152344 350.703125 463.578125 351.660156 C 463.003906 352.621094 462.40625 353.566406 461.785156 354.496094 C 461.164062 355.425781 460.519531 356.339844 459.851562 357.234375 C 459.1875 358.132812 458.5 359.015625 457.789062 359.878906 C 457.082031 360.742188 456.351562 361.589844 455.601562 362.417969 C 454.847656 363.246094 454.078125 364.054688 453.289062 364.847656 C 452.496094 365.636719 451.6875 366.40625 450.859375 367.160156 C 450.03125 367.910156 449.183594 368.640625 448.320312 369.347656 C 447.457031 370.058594 446.574219 370.746094 445.675781 371.410156 C 444.78125 372.078125 443.867188 372.722656 442.9375 373.34375 C 442.007812 373.964844 441.0625 374.5625 440.101562 375.136719 C 439.144531 375.710938 438.171875 376.261719 437.1875 376.789062 C 436.199219 377.316406 435.203125 377.820312 434.191406 378.296875 C 433.179688 378.773438 432.160156 379.226562 431.125 379.65625 C 430.09375 380.082031 429.050781 380.484375 427.996094 380.863281 C 426.945312 381.238281 425.882812 381.589844 424.8125 381.914062 C 423.742188 382.238281 422.667969 382.535156 421.582031 382.808594 C 420.496094 383.078125 419.40625 383.324219 418.308594 383.542969 C 417.214844 383.761719 416.113281 383.953125 415.007812 384.117188 C 413.902344 384.28125 412.792969 384.417969 411.679688 384.527344 C 410.566406 384.636719 409.453125 384.71875 408.335938 384.773438 C 407.21875 384.828125 406.101562 384.855469 404.984375 384.855469 C 403.863281 384.855469 402.746094 384.828125 401.632812 384.773438 C 400.515625 384.71875 399.398438 384.636719 398.289062 384.527344 C 397.175781 384.417969 396.066406 384.28125 394.960938 384.117188 C 393.855469 383.953125 392.753906 383.761719 391.65625 383.542969 C 390.558594 383.324219 389.46875 383.078125 388.382812 382.808594 C 387.300781 382.535156 386.222656 382.238281 385.152344 381.914062 C 384.082031 381.589844 383.023438 381.238281 381.96875 380.863281 C 380.917969 380.484375 379.875 380.082031 378.839844 379.65625 C 377.808594 379.226562 376.785156 378.773438 375.777344 378.296875 C 374.765625 377.820312 373.765625 377.316406 372.78125 376.789062 C 371.792969 376.261719 370.820312 375.710938 369.863281 375.136719 C 368.902344 374.5625 367.960938 373.964844 367.03125 373.34375 C 366.101562 372.722656 365.1875 372.078125 364.289062 371.410156 C 363.390625 370.746094 362.511719 370.058594 361.644531 369.347656 C 360.78125 368.640625 359.933594 367.910156 359.105469 367.160156 C 358.277344 366.40625 357.46875 365.636719 356.679688 364.847656 C 355.886719 364.054688 355.117188 363.246094 354.367188 362.417969 C 353.617188 361.589844 352.886719 360.742188 352.175781 359.878906 C 351.46875 359.015625 350.78125 358.132812 350.113281 357.234375 C 349.449219 356.339844 348.804688 355.425781 348.183594 354.496094 C 347.5625 353.566406 346.964844 352.621094 346.390625 351.660156 C 345.8125 350.703125 345.261719 349.730469 344.734375 348.746094 C 344.210938 347.757812 343.707031 346.761719 343.230469 345.75 C 342.75 344.738281 342.296875 343.71875 341.871094 342.683594 C 341.441406 341.652344 341.039062 340.609375 340.664062 339.554688 C 340.285156 338.503906 339.9375 337.441406 339.613281 336.371094 C 339.285156 335.300781 338.988281 334.226562 338.71875 333.140625 C 338.445312 332.054688 338.199219 330.964844 337.984375 329.871094 C 337.765625 328.773438 337.574219 327.671875 337.410156 326.566406 C 337.246094 325.460938 337.109375 324.351562 337 323.238281 C 336.890625 322.125 336.808594 321.011719 336.753906 319.894531 C 336.699219 318.777344 336.671875 317.660156 336.671875 316.542969 C 336.671875 315.425781 336.699219 314.308594 336.753906 313.191406 C 336.808594 312.074219 336.890625 310.957031 337 309.847656 C 337.109375 308.734375 337.246094 307.625 337.410156 306.519531 C 337.574219 305.414062 337.765625 304.3125 337.984375 303.214844 C 338.199219 302.117188 338.445312 301.027344 338.71875 299.941406 C 338.988281 298.859375 339.285156 297.78125 339.613281 296.710938 C 339.9375 295.640625 340.285156 294.582031 340.664062 293.527344 C 341.039062 292.476562 341.441406 291.433594 341.871094 290.398438 C 342.296875 289.367188 342.75 288.34375 343.230469 287.335938 C 343.707031 286.324219 344.210938 285.324219 344.734375 284.339844 C 345.261719 283.351562 345.8125 282.378906 346.390625 281.421875 C 346.964844 280.464844 347.5625 279.519531 348.183594 278.589844 C 348.804688 277.660156 349.449219 276.746094 350.113281 275.847656 C 350.78125 274.949219 351.46875 274.070312 352.175781 273.203125 C 352.886719 272.339844 353.617188 271.492188 354.367188 270.664062 C 355.117188 269.835938 355.886719 269.027344 356.679688 268.238281 C 357.46875 267.445312 358.277344 266.675781 359.105469 265.925781 C 359.933594 265.175781 360.78125 264.445312 361.644531 263.734375 C 362.511719 263.027344 363.390625 262.339844 364.289062 261.671875 C 365.1875 261.007812 366.101562 260.363281 367.03125 259.742188 C 367.960938 259.121094 368.902344 258.523438 369.863281 257.949219 C 370.820312 257.371094 371.792969 256.820312 372.78125 256.296875 C 373.765625 255.769531 374.765625 255.265625 375.777344 254.789062 C 376.785156 254.308594 377.808594 253.855469 378.839844 253.429688 C 379.875 253 380.917969 252.597656 381.96875 252.222656 C 383.023438 251.84375 384.082031 251.496094 385.152344 251.171875 C 386.222656 250.847656 387.300781 250.546875 388.382812 250.277344 C 389.46875 250.003906 390.558594 249.757812 391.65625 249.542969 C 392.753906 249.324219 393.855469 249.132812 394.960938 248.96875 C 396.066406 248.804688 397.175781 248.667969 398.289062 248.558594 C 399.398438 248.449219 400.515625 248.367188 401.632812 248.3125 C 402.746094 248.257812 403.863281 248.230469 404.984375 248.230469 C 406.101562 248.230469 407.21875 248.257812 408.335938 248.3125 C 409.453125 248.367188 410.566406 248.449219 411.679688 248.558594 C 412.792969 248.667969 413.902344 248.804688 415.007812 248.96875 C 416.113281 249.132812 417.214844 249.324219 418.308594 249.542969 C 419.40625 249.757812 420.496094 250.003906 421.582031 250.277344 C 422.667969 250.546875 423.742188 250.847656 424.8125 251.171875 C 425.882812 251.496094 426.945312 251.84375 427.996094 252.222656 C 429.050781 252.597656 430.09375 253 431.125 253.429688 C 432.160156 253.855469 433.179688 254.308594 434.191406 254.789062 C 435.203125 255.265625 436.199219 255.769531 437.1875 256.296875 C 438.171875 256.820312 439.144531 257.371094 440.101562 257.949219 C 441.0625 258.523438 442.007812 259.121094 442.9375 259.742188 C 443.867188 260.363281 444.78125 261.007812 445.675781 261.671875 C 446.574219 262.339844 447.457031 263.027344 448.320312 263.734375 C 449.183594 264.445312 450.03125 265.175781 450.859375 265.925781 C 451.6875 266.675781 452.496094 267.445312 453.289062 268.238281 C 454.078125 269.027344 454.847656 269.835938 455.601562 270.664062 C 456.351562 271.492188 457.082031 272.339844 457.789062 273.203125 C 458.5 274.070312 459.1875 274.949219 459.851562 275.847656 C 460.519531 276.746094 461.164062 277.660156 461.785156 278.589844 C 462.40625 279.519531 463.003906 280.464844 463.578125 281.421875 C 464.152344 282.378906 464.703125 283.351562 465.230469 284.339844 C 465.757812 285.324219 466.257812 286.324219 466.738281 287.335938 C 467.214844 288.34375 467.667969 289.367188 468.097656 290.398438 C 468.523438 291.433594 468.925781 292.476562 469.304688 293.527344 C 469.679688 294.582031 470.03125 295.640625 470.355469 296.710938 C 470.679688 297.78125 470.976562 298.859375 471.25 299.941406 C 471.519531 301.027344 471.765625 302.117188 471.984375 303.214844 C 472.203125 304.3125 472.394531 305.414062 472.558594 306.519531 C 472.722656 307.625 472.859375 308.734375 472.96875 309.847656 C 473.078125 310.957031 473.160156 312.074219 473.214844 313.191406 C 473.269531 314.308594 473.296875 315.425781 473.296875 316.542969 Z M 473.296875 316.542969 " fill-opacity="1" fill-rule="nonzero"/></svg>