<svg xmlns="http://www.w3.org/2000/svg" xmlns:xlink="http://www.w3.org/1999/xlink" width="1080" zoomAndPan="magnify" viewBox="0 0 810 809.999993" height="1080" preserveAspectRatio="xMidYMid meet" version="1.0"><defs><clipPath id="c93298729a"><path d="M 155.675781 192.421875 L 654 192.421875 L 654 617.578125 L 155.675781 617.578125 Z M 155.675781 192.421875 " clip-rule="nonzero"/></clipPath><clipPath id="3233fcd599"><path d="M 229.394531 266.496094 L 580.394531 266.496094 L 580.394531 543.246094 L 229.394531 543.246094 Z M 229.394531 266.496094 " clip-rule="nonzero"/></clipPath></defs><rect x="-81" width="972" fill="#ffffff" y="-80.999999" height="971.999992" fill-opacity="1"/><rect x="-81" width="972" fill="#222222" y="-80.999999" height="971.999992" fill-opacity="1"/><g clip-path="url(#c93298729a)"><path fill="#cdba1e" d="M 155.675781 192.421875 L 653.90625 192.421875 L 653.90625 617.578125 L 155.675781 617.578125 Z M 155.675781 192.421875 " fill-opacity="1" fill-rule="nonzero"/></g><g clip-path="url(#3233fcd599)"><path fill="#000000" d="M 237.152344 535.65625 L 237.152344 403.015625 L 402.757812 403.015625 L 402.757812 395.257812 L 237.152344 395.257812 L 237.152344 274.253906 L 413.226562 274.253906 L 413.226562 266.496094 L 229.394531 266.496094 L 229.394531 543.410156 L 414.777344 543.410156 L 414.777344 535.65625 Z M 564.097656 344.0625 L 495.453125 434.429688 L 428.355469 344.066406 L 418.269531 344.066406 L 490.796875 440.25 L 411.285156 543.410156 L 420.59375 543.410156 L 495.449219 446.0625 L 570.6875 543.410156 L 580.382812 543.410156 L 500.488281 440.246094 L 573.402344 344.0625 Z M 603.65625 611.671875 L 603.65625 487.566406 L 604.429688 487.566406 C 609.085938 505.664062 618.265625 520.207031 631.96875 531.199219 C 645.671875 542.183594 663.125 547.679688 684.324219 547.679688 C 698.027344 547.679688 710.183594 544.902344 720.78125 539.34375 C 731.382812 533.785156 740.238281 526.21875 747.351562 516.652344 C 754.457031 507.085938 759.890625 495.96875 763.640625 483.296875 C 767.386719 470.632812 769.261719 457.3125 769.261719 443.355469 C 769.261719 428.355469 767.320312 414.523438 763.445312 401.855469 C 759.566406 389.183594 753.941406 378.195312 746.574219 368.886719 C 739.203125 359.578125 730.285156 352.339844 719.8125 347.171875 C 709.34375 342 697.511719 339.410156 684.324219 339.410156 C 674.242188 339.410156 664.871094 340.898438 656.207031 343.871094 C 647.546875 346.847656 639.855469 351.046875 633.132812 356.476562 C 626.332031 361.980469 620.511719 368.378906 615.679688 375.675781 C 610.769531 383.042969 607.019531 391.125 604.429688 399.914062 L 603.65625 399.914062 L 603.65625 344.0625 L 595.898438 344.0625 L 595.898438 611.671875 Z M 684.324219 540.308594 C 660.023438 540.308594 640.5 531.96875 625.761719 515.292969 C 611.027344 498.617188 603.65625 474.636719 603.65625 443.347656 C 603.65625 430.421875 605.46875 418.140625 609.085938 406.503906 C 612.707031 394.871094 617.941406 384.65625 624.792969 375.867188 C 631.644531 367.074219 640.113281 360.09375 650.195312 354.925781 C 660.28125 349.753906 671.65625 347.164062 684.324219 347.164062 C 697.253906 347.164062 708.566406 349.753906 718.261719 354.925781 C 727.957031 360.09375 735.972656 367.140625 742.308594 376.058594 C 748.640625 384.980469 753.425781 395.195312 756.660156 406.699219 C 759.890625 418.203125 761.503906 430.421875 761.503906 443.347656 C 761.503906 454.984375 760.019531 466.558594 757.042969 478.0625 C 754.074219 489.566406 749.480469 499.910156 743.277344 509.089844 C 737.074219 518.265625 729.125 525.765625 719.425781 531.582031 C 709.726562 537.402344 698.027344 540.308594 684.324219 540.308594 Z M 811.925781 543.410156 L 811.925781 430.550781 C 811.925781 419.691406 813.476562 409.089844 816.582031 398.75 C 819.679688 388.40625 824.464844 379.292969 830.929688 371.40625 C 837.394531 363.519531 845.601562 357.316406 855.554688 352.789062 C 865.511719 348.265625 877.339844 346.390625 891.042969 347.164062 L 891.042969 339.410156 C 879.148438 339.152344 868.742188 340.441406 859.824219 343.289062 C 850.902344 346.132812 843.210938 350.011719 836.746094 354.925781 C 830.28125 359.835938 825.113281 365.585938 821.234375 372.183594 C 817.335938 378.804688 814.492188 385.847656 812.699219 393.320312 L 811.925781 393.320312 L 811.925781 344.0625 L 804.167969 344.0625 L 804.167969 543.414062 L 811.925781 543.414062 Z M 900.738281 445.289062 L 1067.507812 445.289062 C 1068.027344 431.585938 1066.667969 418.402344 1063.4375 405.730469 C 1060.203125 393.058594 1055.03125 381.8125 1047.921875 371.988281 C 1040.8125 362.164062 1031.632812 354.277344 1020.386719 348.328125 C 1009.136719 342.382812 995.757812 339.410156 980.246094 339.410156 C 969.125 339.410156 958.265625 341.738281 947.667969 346.394531 C 937.066406 351.046875 927.757812 357.832031 919.742188 366.75 C 911.726562 375.671875 905.265625 386.597656 900.351562 399.527344 C 895.441406 412.453125 892.980469 427.191406 892.980469 443.738281 C 892.980469 458.476562 894.664062 472.246094 898.023438 485.042969 C 901.386719 497.839844 906.554688 508.960938 913.535156 518.398438 C 920.519531 527.832031 929.503906 535.136719 940.492188 540.308594 C 951.480469 545.480469 964.730469 547.9375 980.246094 547.679688 C 1002.996094 547.679688 1022.132812 541.277344 1037.644531 528.480469 C 1053.160156 515.679688 1062.335938 497.648438 1065.183594 474.375 L 1057.425781 474.375 C 1054.0625 496.355469 1045.464844 512.839844 1031.632812 523.824219 C 1017.800781 534.816406 1000.414062 540.308594 979.46875 540.308594 C 965.246094 540.308594 953.226562 537.851562 943.398438 532.941406 C 933.578125 528.027344 925.558594 521.304688 919.355469 512.773438 C 913.148438 504.238281 908.558594 494.21875 905.585938 482.714844 C 902.613281 471.210938 900.996094 458.734375 900.738281 445.289062 Z M 1059.75 437.53125 L 900.742188 437.53125 C 901.511719 423.570312 904.101562 411.03125 908.496094 399.914062 C 912.890625 388.792969 918.644531 379.292969 925.753906 371.40625 C 932.863281 363.519531 941.140625 357.511719 950.574219 353.371094 C 960.011719 349.234375 970.160156 347.164062 981.019531 347.164062 C 993.949219 347.164062 1005.324219 349.558594 1015.152344 354.34375 C 1024.972656 359.125 1033.183594 365.65625 1039.777344 373.929688 C 1046.371094 382.203125 1051.347656 391.832031 1054.707031 402.820312 C 1058.070312 413.808594 1059.75 425.382812 1059.75 437.53125 Z M 1228.460938 403.015625 L 1236.21875 403.015625 C 1236.21875 380.777344 1229.753906 364.621094 1216.828125 354.535156 C 1203.894531 344.453125 1186.3125 339.410156 1164.078125 339.410156 C 1151.667969 339.410156 1141.199219 340.960938 1132.664062 344.066406 C 1124.132812 347.164062 1117.152344 351.175781 1111.722656 356.085938 C 1106.292969 360.996094 1102.414062 366.429688 1100.085938 372.375 C 1097.757812 378.324219 1096.59375 384.011719 1096.59375 389.441406 C 1096.59375 400.300781 1098.535156 408.960938 1102.414062 415.425781 C 1106.292969 421.890625 1112.367188 426.933594 1120.640625 430.550781 C 1126.328125 433.136719 1132.792969 435.464844 1140.035156 437.535156 C 1147.273438 439.601562 1155.675781 441.800781 1165.242188 444.125 C 1173.773438 446.195312 1182.179688 448.261719 1190.453125 450.332031 C 1198.726562 452.398438 1206.03125 455.179688 1212.363281 458.667969 C 1218.699219 462.160156 1223.871094 466.621094 1227.878906 472.050781 C 1231.886719 477.480469 1233.890625 484.589844 1233.890625 493.378906 C 1233.890625 501.914062 1231.886719 509.152344 1227.878906 515.097656 C 1223.855469 521.085938 1218.75 525.9375 1212.558594 529.644531 C 1206.355469 533.390625 1199.4375 536.105469 1191.808594 537.789062 C 1184.183594 539.46875 1176.75 540.308594 1169.511719 540.308594 C 1145.980469 540.308594 1127.945312 535.074219 1115.40625 524.601562 C 1102.867188 514.128906 1096.597656 497.648438 1096.597656 475.152344 L 1088.839844 475.152344 C 1088.839844 500.234375 1095.625 518.589844 1109.199219 530.226562 C 1122.777344 541.859375 1142.878906 547.679688 1169.511719 547.679688 C 1178.042969 547.679688 1186.636719 546.707031 1195.300781 544.769531 C 1203.960938 542.828125 1211.71875 539.664062 1218.570312 535.265625 C 1221.964844 533.097656 1225.074219 530.574219 1227.890625 527.691406 C 1230.703125 524.8125 1233.15625 521.648438 1235.246094 518.203125 C 1239.511719 511.21875 1241.648438 502.6875 1241.648438 492.605469 C 1241.648438 483.039062 1239.773438 475.28125 1236.023438 469.335938 C 1232.273438 463.390625 1227.363281 458.476562 1221.285156 454.597656 C 1215.210938 450.71875 1208.359375 447.679688 1200.730469 445.484375 C 1193.058594 443.273438 1185.367188 441.140625 1177.652344 439.082031 C 1168.160156 436.59375 1158.65625 434.136719 1149.148438 431.714844 C 1141.003906 429.644531 1133.441406 427.191406 1126.460938 424.34375 C 1119.738281 421.5 1114.371094 417.429688 1110.363281 412.128906 C 1106.355469 406.828125 1104.351562 399.265625 1104.351562 389.441406 C 1104.351562 387.632812 1104.871094 384.398438 1105.902344 379.746094 C 1106.9375 375.089844 1109.394531 370.371094 1113.273438 365.589844 C 1117.152344 360.808594 1123.097656 356.539062 1131.113281 352.789062 C 1139.128906 349.042969 1150.117188 347.164062 1164.078125 347.164062 C 1173.644531 347.164062 1182.371094 348.203125 1190.257812 350.269531 C 1198.144531 352.339844 1204.933594 355.632812 1210.617188 360.160156 C 1216.308594 364.683594 1220.703125 370.4375 1223.804688 377.417969 C 1226.910156 384.402344 1228.460938 392.933594 1228.460938 403.015625 Z M 1408.027344 403.015625 L 1415.785156 403.015625 C 1415.785156 380.777344 1409.320312 364.621094 1396.394531 354.535156 C 1383.464844 344.453125 1365.882812 339.410156 1343.644531 339.410156 C 1331.238281 339.410156 1320.765625 340.960938 1312.234375 344.066406 C 1303.699219 347.164062 1296.71875 351.175781 1291.289062 356.085938 C 1285.859375 360.996094 1281.980469 366.429688 1279.652344 372.375 C 1277.324219 378.324219 1276.164062 384.011719 1276.164062 389.441406 C 1276.164062 400.300781 1278.101562 408.960938 1281.984375 415.425781 C 1285.859375 421.890625 1291.9375 426.933594 1300.210938 430.550781 C 1305.898438 433.136719 1312.359375 435.464844 1319.601562 437.535156 C 1326.839844 439.601562 1335.242188 441.800781 1344.808594 444.125 C 1353.34375 446.195312 1361.746094 448.261719 1370.019531 450.332031 C 1378.296875 452.398438 1385.597656 455.179688 1391.933594 458.667969 C 1398.265625 462.160156 1403.441406 466.621094 1407.445312 472.050781 C 1411.453125 477.480469 1413.457031 484.589844 1413.457031 493.378906 C 1413.457031 501.914062 1411.453125 509.152344 1407.445312 515.097656 C 1403.421875 521.085938 1398.316406 525.9375 1392.128906 529.644531 C 1385.921875 533.390625 1379.003906 536.105469 1371.378906 537.789062 C 1363.75 539.46875 1356.316406 540.308594 1349.078125 540.308594 C 1325.546875 540.308594 1307.515625 535.074219 1294.976562 524.601562 C 1282.433594 514.128906 1276.164062 497.648438 1276.164062 475.152344 L 1268.40625 475.152344 C 1268.40625 500.234375 1275.195312 518.589844 1288.769531 530.226562 C 1302.34375 541.859375 1322.445312 547.679688 1349.078125 547.679688 C 1357.609375 547.679688 1366.207031 546.707031 1374.867188 544.769531 C 1383.527344 542.828125 1391.285156 539.664062 1398.140625 535.265625 C 1401.535156 533.097656 1404.640625 530.574219 1407.457031 527.691406 C 1410.273438 524.8125 1412.726562 521.648438 1414.816406 518.203125 C 1419.082031 511.21875 1421.214844 502.6875 1421.214844 492.605469 C 1421.214844 483.039062 1419.339844 475.28125 1415.589844 469.335938 C 1411.84375 463.390625 1406.929688 458.476562 1400.855469 454.597656 C 1394.777344 450.71875 1387.925781 447.679688 1380.300781 445.484375 C 1372.628906 443.273438 1364.9375 441.140625 1357.222656 439.082031 C 1347.730469 436.59375 1338.226562 434.136719 1328.714844 431.714844 C 1320.570312 429.644531 1313.007812 427.191406 1306.027344 424.34375 C 1299.304688 421.5 1293.9375 417.429688 1289.933594 412.128906 C 1285.925781 406.828125 1283.921875 399.265625 1283.921875 389.441406 C 1283.921875 387.632812 1284.4375 384.398438 1285.472656 379.746094 C 1286.507812 375.089844 1288.964844 370.371094 1292.839844 365.589844 C 1296.71875 360.808594 1302.664062 356.539062 1310.679688 352.789062 C 1318.695312 349.042969 1329.683594 347.164062 1343.648438 347.164062 C 1353.214844 347.164062 1361.941406 348.203125 1369.828125 350.269531 C 1377.714844 352.339844 1384.5 355.632812 1390.1875 360.160156 C 1395.875 364.683594 1400.273438 370.4375 1403.375 377.417969 C 1406.476562 384.402344 1408.03125 392.933594 1408.03125 403.015625 Z M 1408.027344 403.015625 " fill-opacity="1" fill-rule="nonzero"/></g></svg>