<svg xmlns="http://www.w3.org/2000/svg" xmlns:xlink="http://www.w3.org/1999/xlink" width="1080" zoomAndPan="magnify" viewBox="0 0 810 809.999993" height="1080" preserveAspectRatio="xMidYMid meet" version="1.0"><defs><clipPath id="c9d0b4cdb3"><path d="M 228.976562 229.40625 L 580.585938 229.40625 L 580.585938 580.726562 L 228.976562 580.726562 Z M 228.976562 229.40625 " clip-rule="nonzero"/></clipPath></defs><rect x="-81" width="972" fill="#ffffff" y="-80.999999" height="971.999992" fill-opacity="1"/><rect x="-81" width="972" fill="#f03c2e" y="-80.999999" height="971.999992" fill-opacity="1"/><g clip-path="url(#c9d0b4cdb3)"><path fill="#ffffff" d="M 573.960938 389.558594 L 420.441406 236.046875 C 419.917969 235.523438 419.367188 235.023438 418.792969 234.554688 C 418.21875 234.082031 417.625 233.640625 417.007812 233.226562 C 416.390625 232.816406 415.757812 232.433594 415.101562 232.085938 C 414.449219 231.734375 413.777344 231.417969 413.09375 231.132812 C 412.40625 230.851562 411.710938 230.601562 411 230.386719 C 410.289062 230.167969 409.570312 229.988281 408.84375 229.84375 C 408.113281 229.699219 407.382812 229.589844 406.644531 229.519531 C 405.90625 229.445312 405.164062 229.410156 404.421875 229.410156 C 403.679688 229.410156 402.941406 229.445312 402.203125 229.519531 C 401.464844 229.589844 400.730469 229.699219 400.003906 229.84375 C 399.277344 229.988281 398.554688 230.167969 397.847656 230.386719 C 397.136719 230.601562 396.4375 230.851562 395.753906 231.132812 C 395.066406 231.417969 394.398438 231.734375 393.742188 232.085938 C 393.089844 232.433594 392.453125 232.816406 391.835938 233.226562 C 391.21875 233.640625 390.625 234.082031 390.050781 234.554688 C 389.476562 235.023438 388.929688 235.523438 388.40625 236.046875 L 356.539062 267.929688 L 396.96875 308.359375 C 398.152344 307.960938 399.355469 307.640625 400.582031 307.40625 C 401.808594 307.175781 403.046875 307.027344 404.292969 306.964844 C 405.542969 306.902344 406.789062 306.929688 408.03125 307.039062 C 409.273438 307.152344 410.503906 307.351562 411.722656 307.632812 C 412.9375 307.917969 414.128906 308.28125 415.292969 308.730469 C 416.460938 309.179688 417.589844 309.710938 418.679688 310.316406 C 419.773438 310.921875 420.816406 311.601562 421.8125 312.351562 C 422.8125 313.105469 423.75 313.921875 424.632812 314.804688 C 425.523438 315.695312 426.34375 316.640625 427.101562 317.644531 C 427.855469 318.648438 428.539062 319.703125 429.144531 320.800781 C 429.753906 321.902344 430.285156 323.039062 430.730469 324.210938 C 431.179688 325.386719 431.546875 326.585938 431.828125 327.8125 C 432.109375 329.035156 432.300781 330.273438 432.410156 331.527344 C 432.515625 332.777344 432.535156 334.03125 432.46875 335.289062 C 432.402344 336.542969 432.246094 337.785156 432.003906 339.019531 C 431.761719 340.253906 431.433594 341.464844 431.019531 342.652344 L 470.003906 381.621094 C 471.191406 381.207031 472.402344 380.878906 473.632812 380.636719 C 474.867188 380.394531 476.113281 380.238281 477.367188 380.171875 C 478.625 380.101562 479.878906 380.121094 481.128906 380.230469 C 482.382812 380.339844 483.621094 380.53125 484.847656 380.816406 C 486.074219 381.097656 487.273438 381.460938 488.445312 381.910156 C 489.621094 382.359375 490.757812 382.890625 491.855469 383.5 C 492.957031 384.109375 494.007812 384.792969 495.011719 385.550781 C 496.015625 386.304688 496.964844 387.128906 497.851562 388.019531 C 498.476562 388.640625 499.066406 389.296875 499.628906 389.976562 C 500.1875 390.660156 500.710938 391.367188 501.203125 392.101562 C 501.691406 392.835938 502.144531 393.589844 502.5625 394.367188 C 502.976562 395.148438 503.355469 395.945312 503.691406 396.757812 C 504.03125 397.574219 504.328125 398.402344 504.582031 399.25 C 504.839844 400.09375 505.054688 400.949219 505.226562 401.8125 C 505.398438 402.679688 505.527344 403.550781 505.613281 404.429688 C 505.699219 405.304688 505.742188 406.1875 505.742188 407.070312 C 505.742188 407.953125 505.699219 408.832031 505.613281 409.710938 C 505.527344 410.589844 505.398438 411.460938 505.226562 412.324219 C 505.054688 413.191406 504.839844 414.046875 504.582031 414.890625 C 504.328125 415.734375 504.03125 416.5625 503.691406 417.378906 C 503.355469 418.195312 502.976562 418.992188 502.5625 419.769531 C 502.144531 420.546875 501.691406 421.304688 501.203125 422.035156 C 500.710938 422.769531 500.1875 423.476562 499.628906 424.160156 C 499.066406 424.84375 498.476562 425.496094 497.851562 426.121094 C 497.226562 426.742188 496.574219 427.335938 495.890625 427.894531 C 495.207031 428.453125 494.5 428.980469 493.765625 429.46875 C 493.03125 429.960938 492.273438 430.414062 491.496094 430.828125 C 490.714844 431.246094 489.917969 431.621094 489.101562 431.960938 C 488.289062 432.296875 487.457031 432.59375 486.613281 432.851562 C 485.765625 433.105469 484.910156 433.320312 484.046875 433.492188 C 483.179688 433.664062 482.308594 433.792969 481.429688 433.882812 C 480.550781 433.96875 479.667969 434.011719 478.785156 434.011719 C 477.902344 434.011719 477.023438 433.96875 476.144531 433.882812 C 475.265625 433.792969 474.394531 433.664062 473.527344 433.492188 C 472.660156 433.320312 471.804688 433.105469 470.960938 432.851562 C 470.113281 432.59375 469.285156 432.296875 468.46875 431.960938 C 467.652344 431.621094 466.855469 431.246094 466.078125 430.828125 C 465.296875 430.414062 464.542969 429.960938 463.808594 429.46875 C 463.074219 428.980469 462.363281 428.453125 461.679688 427.894531 C 461 427.335938 460.34375 426.742188 459.71875 426.121094 C 458.785156 425.183594 457.925781 424.183594 457.136719 423.121094 C 456.351562 422.058594 455.644531 420.945312 455.023438 419.777344 C 454.398438 418.613281 453.863281 417.40625 453.417969 416.160156 C 452.972656 414.917969 452.621094 413.644531 452.363281 412.347656 C 452.101562 411.050781 451.941406 409.742188 451.875 408.421875 C 451.808594 407.101562 451.839844 405.78125 451.96875 404.464844 C 452.097656 403.148438 452.320312 401.851562 452.640625 400.566406 C 452.957031 399.285156 453.371094 398.03125 453.875 396.808594 L 417.519531 360.46875 L 417.519531 456.121094 C 418 456.355469 418.46875 456.605469 418.929688 456.867188 C 419.394531 457.132812 419.847656 457.410156 420.292969 457.699219 C 420.742188 457.992188 421.179688 458.296875 421.605469 458.613281 C 422.035156 458.929688 422.453125 459.257812 422.863281 459.597656 C 423.269531 459.941406 423.667969 460.292969 424.058594 460.660156 C 424.445312 461.023438 424.820312 461.398438 425.1875 461.789062 C 425.550781 462.175781 425.90625 462.574219 426.246094 462.980469 C 426.589844 463.390625 426.917969 463.808594 427.234375 464.234375 C 427.554688 464.664062 427.855469 465.101562 428.148438 465.546875 C 428.4375 465.992188 428.71875 466.445312 428.980469 466.910156 C 429.246094 467.371094 429.496094 467.839844 429.730469 468.320312 C 429.96875 468.796875 430.191406 469.28125 430.398438 469.769531 C 430.605469 470.261719 430.796875 470.757812 430.976562 471.257812 C 431.15625 471.761719 431.316406 472.269531 431.464844 472.78125 C 431.613281 473.289062 431.746094 473.804688 431.863281 474.324219 C 431.980469 474.84375 432.085938 475.367188 432.171875 475.894531 C 432.257812 476.417969 432.328125 476.945312 432.382812 477.476562 C 432.4375 478.007812 432.476562 478.535156 432.503906 479.070312 C 432.527344 479.601562 432.535156 480.132812 432.527344 480.664062 C 432.519531 481.199219 432.496094 481.730469 432.457031 482.261719 C 432.417969 482.792969 432.359375 483.320312 432.289062 483.851562 C 432.21875 484.378906 432.132812 484.902344 432.03125 485.425781 C 431.929688 485.949219 431.8125 486.46875 431.679688 486.984375 C 431.546875 487.5 431.398438 488.011719 431.234375 488.519531 C 431.074219 489.023438 430.894531 489.527344 430.703125 490.023438 C 430.511719 490.519531 430.300781 491.011719 430.082031 491.492188 C 429.859375 491.976562 429.621094 492.457031 429.371094 492.925781 C 429.121094 493.394531 428.859375 493.859375 428.582031 494.3125 C 428.304688 494.765625 428.011719 495.214844 427.707031 495.648438 C 427.40625 496.085938 427.085938 496.515625 426.757812 496.933594 C 426.429688 497.351562 426.085938 497.761719 425.734375 498.160156 C 425.378906 498.558594 425.015625 498.945312 424.636719 499.320312 C 424.015625 499.945312 423.363281 500.539062 422.679688 501.097656 C 421.996094 501.65625 421.289062 502.183594 420.554688 502.671875 C 419.824219 503.164062 419.066406 503.617188 418.289062 504.03125 C 417.511719 504.449219 416.714844 504.824219 415.898438 505.164062 C 415.082031 505.5 414.253906 505.796875 413.410156 506.054688 C 412.566406 506.308594 411.710938 506.523438 410.84375 506.695312 C 409.980469 506.867188 409.105469 506.996094 408.230469 507.082031 C 407.351562 507.171875 406.46875 507.214844 405.589844 507.214844 C 404.707031 507.214844 403.824219 507.171875 402.949219 507.082031 C 402.070312 506.996094 401.199219 506.867188 400.332031 506.695312 C 399.464844 506.523438 398.613281 506.308594 397.765625 506.054688 C 396.921875 505.796875 396.09375 505.5 395.277344 505.164062 C 394.460938 504.824219 393.664062 504.449219 392.886719 504.03125 C 392.109375 503.617188 391.355469 503.164062 390.621094 502.671875 C 389.886719 502.183594 389.179688 501.65625 388.496094 501.097656 C 387.8125 500.539062 387.160156 499.945312 386.539062 499.320312 C 385.914062 498.699219 385.320312 498.042969 384.761719 497.363281 C 384.203125 496.679688 383.675781 495.972656 383.1875 495.238281 C 382.695312 494.503906 382.242188 493.75 381.824219 492.972656 C 381.410156 492.191406 381.03125 491.394531 380.695312 490.582031 C 380.359375 489.765625 380.058594 488.933594 379.804688 488.089844 C 379.546875 487.246094 379.332031 486.390625 379.160156 485.527344 C 378.988281 484.660156 378.859375 483.789062 378.773438 482.910156 C 378.6875 482.03125 378.644531 481.152344 378.644531 480.269531 C 378.644531 479.386719 378.6875 478.507812 378.773438 477.628906 C 378.859375 476.75 378.988281 475.878906 379.160156 475.011719 C 379.332031 474.148438 379.546875 473.292969 379.804688 472.445312 C 380.058594 471.601562 380.359375 470.773438 380.695312 469.957031 C 381.03125 469.140625 381.410156 468.34375 381.824219 467.566406 C 382.242188 466.789062 382.695312 466.03125 383.1875 465.300781 C 383.675781 464.566406 384.203125 463.859375 384.761719 463.175781 C 385.320312 462.492188 385.914062 461.839844 386.539062 461.214844 C 389.082031 458.664062 392.023438 456.703125 395.355469 455.328125 L 395.355469 358.796875 C 394.535156 358.457031 393.734375 358.082031 392.953125 357.664062 C 392.167969 357.246094 391.410156 356.792969 390.671875 356.300781 C 389.933594 355.8125 389.222656 355.285156 388.539062 354.722656 C 387.851562 354.160156 387.195312 353.566406 386.570312 352.941406 C 385.941406 352.316406 385.347656 351.660156 384.785156 350.976562 C 384.222656 350.292969 383.695312 349.582031 383.203125 348.84375 C 382.710938 348.105469 382.253906 347.347656 381.835938 346.566406 C 381.417969 345.785156 381.039062 344.984375 380.703125 344.164062 C 380.363281 343.347656 380.066406 342.511719 379.808594 341.664062 C 379.550781 340.816406 379.339844 339.957031 379.167969 339.089844 C 378.996094 338.21875 378.867188 337.34375 378.78125 336.460938 C 378.695312 335.578125 378.652344 334.695312 378.652344 333.808594 C 378.65625 332.921875 378.699219 332.039062 378.789062 331.15625 C 378.878906 330.277344 379.007812 329.402344 379.183594 328.53125 C 379.359375 327.664062 379.574219 326.804688 379.835938 325.957031 C 380.09375 325.109375 380.394531 324.277344 380.738281 323.460938 L 340.871094 283.589844 L 235.59375 388.835938 C 235.070312 389.363281 234.574219 389.910156 234.105469 390.484375 C 233.632812 391.058594 233.195312 391.652344 232.78125 392.269531 C 232.371094 392.886719 231.988281 393.523438 231.640625 394.179688 C 231.292969 394.832031 230.976562 395.503906 230.691406 396.1875 C 230.410156 396.871094 230.160156 397.570312 229.945312 398.28125 C 229.730469 398.988281 229.550781 399.707031 229.40625 400.4375 C 229.261719 401.164062 229.152344 401.894531 229.078125 402.632812 C 229.007812 403.371094 228.96875 404.113281 228.96875 404.851562 C 228.96875 405.59375 229.007812 406.335938 229.078125 407.074219 C 229.152344 407.8125 229.261719 408.542969 229.40625 409.269531 C 229.550781 410 229.730469 410.71875 229.945312 411.425781 C 230.160156 412.136719 230.410156 412.835938 230.691406 413.519531 C 230.976562 414.203125 231.292969 414.875 231.640625 415.527344 C 231.988281 416.183594 232.371094 416.820312 232.78125 417.4375 C 233.195312 418.050781 233.632812 418.648438 234.105469 419.222656 C 234.574219 419.796875 235.070312 420.34375 235.59375 420.871094 L 389.125 574.398438 C 389.648438 574.921875 390.199219 575.417969 390.773438 575.890625 C 391.347656 576.359375 391.941406 576.800781 392.558594 577.210938 C 393.175781 577.621094 393.808594 578.003906 394.464844 578.351562 C 395.117188 578.699219 395.789062 579.015625 396.472656 579.300781 C 397.160156 579.582031 397.855469 579.832031 398.566406 580.046875 C 399.277344 580.261719 399.992188 580.441406 400.722656 580.585938 C 401.449219 580.730469 402.179688 580.839844 402.917969 580.914062 C 403.65625 580.984375 404.398438 581.019531 405.136719 581.019531 C 405.878906 581.019531 406.621094 580.984375 407.359375 580.914062 C 408.09375 580.839844 408.828125 580.730469 409.554688 580.585938 C 410.28125 580.441406 411 580.261719 411.710938 580.046875 C 412.421875 579.832031 413.117188 579.582031 413.804688 579.300781 C 414.488281 579.015625 415.15625 578.699219 415.8125 578.351562 C 416.464844 578.003906 417.101562 577.621094 417.71875 577.210938 C 418.335938 576.800781 418.929688 576.359375 419.503906 575.890625 C 420.078125 575.417969 420.628906 574.921875 421.152344 574.398438 L 573.960938 421.589844 C 574.484375 421.0625 574.984375 420.515625 575.453125 419.941406 C 575.921875 419.367188 576.363281 418.773438 576.773438 418.15625 C 577.1875 417.539062 577.566406 416.902344 577.917969 416.25 C 578.265625 415.59375 578.582031 414.925781 578.867188 414.238281 C 579.148438 413.554688 579.398438 412.855469 579.613281 412.144531 C 579.828125 411.4375 580.007812 410.71875 580.152344 409.992188 C 580.296875 409.261719 580.40625 408.53125 580.476562 407.792969 C 580.550781 407.054688 580.585938 406.3125 580.585938 405.574219 C 580.585938 404.832031 580.550781 404.089844 580.476562 403.351562 C 580.40625 402.613281 580.296875 401.882812 580.152344 401.15625 C 580.007812 400.425781 579.828125 399.710938 579.613281 399 C 579.398438 398.289062 579.148438 397.59375 578.867188 396.90625 C 578.582031 396.222656 578.265625 395.550781 577.917969 394.898438 C 577.566406 394.242188 577.1875 393.609375 576.773438 392.992188 C 576.363281 392.375 575.921875 391.777344 575.453125 391.203125 C 574.984375 390.632812 574.484375 390.082031 573.960938 389.558594 " fill-opacity="1" fill-rule="nonzero"/></g></svg>