<svg xmlns="http://www.w3.org/2000/svg" xmlns:xlink="http://www.w3.org/1999/xlink" width="1080" zoomAndPan="magnify" viewBox="0 0 810 809.999993" height="1080" preserveAspectRatio="xMidYMid meet" version="1.0"><rect x="-81" width="972" fill="#ffffff" y="-80.999999" height="971.999992" fill-opacity="1"/><rect x="-81" width="972" fill="#ffffff" y="-80.999999" height="971.999992" fill-opacity="1"/><path fill="#599636" d="M 387.070312 237.855469 L 396.867188 256.238281 C 399.066406 259.628906 401.453125 262.628906 404.261719 265.425781 C 412.511719 273.5625 420.171875 282.21875 427.246094 291.390625 C 443.84375 313.164062 455.035156 337.34375 463.03125 363.492188 C 467.824219 379.464844 470.429688 395.851562 470.625 412.421875 C 471.425781 461.957031 454.429688 504.492188 420.160156 539.84375 C 414.574219 545.457031 408.574219 550.585938 402.152344 555.222656 C 398.757812 555.222656 397.152344 552.621094 395.753906 550.226562 C 393.183594 545.746094 391.515625 540.953125 390.753906 535.84375 C 389.546875 529.851562 388.757812 523.859375 389.148438 517.671875 L 389.148438 514.875 C 388.871094 514.277344 385.878906 239.265625 387.070312 237.855469 Z M 387.070312 237.855469 " fill-opacity="1" fill-rule="nonzero"/><path fill="#6cac48" d="M 387.070312 237.25 C 386.667969 236.445312 386.269531 237.054688 385.867188 237.445312 C 386.0625 241.453125 384.664062 245.03125 382.472656 248.445312 C 380.0625 251.835938 376.875 254.4375 373.675781 257.234375 C 355.898438 272.609375 341.90625 291.1875 330.699219 311.960938 C 315.789062 339.921875 308.105469 369.886719 305.925781 401.433594 C 304.929688 412.808594 309.527344 452.960938 313.117188 464.546875 C 322.914062 495.300781 340.507812 521.074219 363.296875 543.441406 C 368.890625 548.828125 374.878906 553.824219 381.074219 558.625 C 382.875 558.625 383.066406 557.019531 383.480469 555.828125 C 384.273438 553.273438 384.871094 550.675781 385.28125 548.035156 L 389.296875 518.082031 Z M 387.070312 237.25 " fill-opacity="1" fill-rule="nonzero"/><path fill="#c2bfbf" d="M 396.867188 567.390625 C 397.265625 562.808594 399.46875 559.003906 401.867188 555.210938 C 399.457031 554.210938 397.667969 552.230469 396.269531 550.019531 C 395.058594 547.917969 394.066406 545.722656 393.289062 543.429688 C 390.488281 535.042969 389.890625 526.242188 389.089844 517.671875 L 389.089844 512.480469 C 388.089844 513.28125 387.886719 520.066406 387.886719 521.074219 C 387.300781 530.144531 386.101562 539.128906 384.285156 548.035156 C 383.6875 551.632812 383.285156 555.222656 381.074219 558.417969 C 381.074219 558.820312 381.074219 559.21875 381.269531 559.816406 C 384.867188 570.402344 385.855469 581.1875 386.464844 592.175781 L 386.464844 596.1875 C 386.464844 600.976562 386.269531 599.96875 390.246094 601.570312 C 391.855469 602.167969 393.644531 602.375 395.25 603.566406 C 396.453125 603.566406 396.648438 602.570312 396.648438 601.765625 L 396.050781 595.179688 L 396.050781 576.796875 C 395.855469 573.589844 396.453125 570.402344 396.855469 567.402344 Z M 396.867188 567.390625 " fill-opacity="1" fill-rule="nonzero"/></svg>