<svg xmlns="http://www.w3.org/2000/svg" xmlns:xlink="http://www.w3.org/1999/xlink" width="1080" zoomAndPan="magnify" viewBox="0 0 810 809.999993" height="1080" preserveAspectRatio="xMidYMid meet" version="1.0"><rect x="-81" width="972" fill="#ffffff" y="-80.999999" height="971.999992" fill-opacity="1"/><rect x="-81" width="972" fill="#880000" y="-80.999999" height="971.999992" fill-opacity="1"/><path fill="#ffffff" d="M 416.136719 338.988281 C 411.328125 340.160156 412.152344 341.449219 419.890625 344.96875 C 430.558594 349.773438 434.78125 353.058594 426.101562 349.773438 C 408.28125 342.972656 388.464844 338.753906 379.085938 339.574219 C 370.292969 340.511719 368.652344 342.621094 368.652344 353.292969 C 368.652344 360.796875 369.355469 363.609375 372.519531 370.996094 C 381.898438 392.453125 396.4375 406.992188 417.894531 416.371094 C 428.566406 421.0625 427.511719 421.296875 415.199219 417.191406 C 388.347656 408.28125 366.65625 382.605469 363.257812 355.871094 L 362.4375 349.539062 L 345.90625 350.242188 C 322.808594 351.179688 302.054688 355.753906 278.371094 365.132812 C 265.121094 370.410156 241.320312 382.371094 231.234375 388.816406 C 227.835938 391.046875 223.496094 393.859375 221.503906 395.03125 C 215.523438 398.667969 191.722656 416.839844 185.976562 422.117188 L 180.464844 427.160156 L 185.273438 426.101562 C 187.96875 425.515625 191.605469 424.460938 193.480469 423.757812 C 198.757812 421.765625 225.488281 417.894531 234.402344 417.894531 C 244.367188 417.894531 261.25 420.476562 271.453125 423.640625 C 280.246094 426.453125 295.136719 434.898438 300.882812 440.40625 C 302.992188 442.519531 307.09375 446.855469 309.792969 450.140625 L 314.714844 456 L 314.714844 422.585938 L 333.710938 422.820312 L 352.707031 423.171875 L 361.382812 439.351562 C 366.1875 448.261719 370.292969 455.296875 370.527344 455.0625 C 370.761719 454.828125 374.867188 447.558594 379.554688 438.882812 L 388.230469 423.171875 L 407.695312 422.820312 L 427.277344 422.585938 L 427.511719 454.359375 L 427.863281 486.25 L 431.378906 482.734375 C 433.371094 480.859375 437.007812 477.105469 439.46875 474.410156 C 448.847656 464.210938 463.855469 460.105469 491.175781 460.105469 C 510.40625 460.105469 511.226562 459.753906 507.472656 452.484375 C 506.535156 450.609375 505.949219 447.910156 506.417969 446.386719 C 507.472656 441.933594 507.472656 441.933594 550.386719 432.785156 C 561.058594 430.558594 575.832031 427.511719 583.21875 426.101562 C 615.578125 419.773438 620.03125 417.425781 626.714844 403.238281 C 633.046875 389.757812 632.578125 384.597656 624.722656 382.253906 C 621.792969 381.3125 620.265625 382.957031 617.804688 389.285156 L 616.046875 393.859375 L 616.632812 389.167969 C 616.867188 386.589844 617.335938 383.542969 617.453125 382.371094 C 617.921875 379.671875 605.496094 374.160156 581.457031 366.304688 C 542.179688 353.527344 500.789062 344.144531 465.382812 339.925781 C 451.195312 338.285156 421.414062 337.699219 416.136719 338.988281 Z M 392.335938 357.628906 C 403.003906 361.5 414.964844 368.535156 420.242188 374.042969 L 424.34375 378.148438 L 421.0625 376.976562 C 419.183594 376.273438 416.722656 375.101562 415.433594 374.511719 C 412.503906 372.871094 412.621094 373.574219 416.136719 379.320312 L 419.183594 384.011719 L 414.496094 381.546875 C 406.875 377.679688 405.351562 378.5 410.390625 383.894531 C 416.957031 390.8125 417.660156 392.335938 413.675781 391.398438 C 410.15625 390.460938 410.273438 390.8125 414.964844 397.378906 C 419.539062 403.707031 419.65625 404.292969 415.667969 401.949219 C 409.6875 398.433594 396.671875 387.175781 391.984375 381.429688 C 383.074219 370.527344 378.96875 361.148438 380.84375 356.339844 C 381.664062 353.996094 382.371094 354.113281 392.335938 357.628906 Z M 505.011719 369.121094 C 518.613281 371.347656 543.351562 377.09375 543.351562 378.03125 C 543.351562 380.257812 536.082031 381.546875 523.066406 381.546875 C 505.714844 381.546875 501.261719 380.375 495.75 374.75 C 493.402344 372.402344 489.652344 369.824219 487.308594 369.121094 L 482.96875 367.714844 L 488.832031 367.597656 C 492.113281 367.597656 499.382812 368.300781 505.011719 369.121094 Z M 525.765625 422.46875 C 509.351562 427.863281 499.382812 432.667969 496.21875 436.65625 C 494.34375 439 493.992188 440.875 494.34375 445.683594 C 494.695312 449.085938 494.695312 451.898438 494.578125 451.898438 C 493.636719 451.898438 490.707031 444.980469 490.003906 441.226562 C 489.300781 437.359375 489.652344 436.65625 493.753906 433.253906 C 500.4375 427.746094 526.9375 418.128906 535.730469 418.011719 C 537.839844 418.011719 533.621094 419.773438 525.765625 422.46875 Z M 525.765625 422.46875 " fill-opacity="1" fill-rule="nonzero"/><path fill="#ffffff" d="M 353.410156 489.066406 L 353.410156 514.039062 L 388.582031 514.039062 L 388.582031 464.210938 L 380.023438 477.339844 C 375.453125 484.609375 371.230469 490.589844 370.878906 490.589844 C 370.292969 490.589844 363.726562 480.742188 355.988281 468.3125 L 353.410156 464.210938 Z M 353.410156 489.066406 " fill-opacity="1" fill-rule="nonzero"/></svg>