<svg xmlns="http://www.w3.org/2000/svg" xmlns:xlink="http://www.w3.org/1999/xlink" width="1080" zoomAndPan="magnify" viewBox="0 0 810 809.999993" height="1080" preserveAspectRatio="xMidYMid meet" version="1.0"><defs><clipPath id="081bca5090"><path d="M 170.730469 170.5 L 639.480469 170.5 L 639.480469 639.25 L 170.730469 639.25 Z M 170.730469 170.5 " clip-rule="nonzero"/></clipPath></defs><rect x="-81" width="972" fill="#ffffff" y="-80.999999" height="971.999992" fill-opacity="1"/><rect x="-81" width="972" fill="#ffffff" y="-80.999999" height="971.999992" fill-opacity="1"/><g clip-path="url(#081bca5090)"><path fill="#000000" d="M 389.753906 170.867188 C 388.746094 170.957031 385.539062 171.277344 382.652344 171.507812 C 316.082031 177.503906 253.726562 213.386719 214.234375 268.542969 C 192.242188 299.210938 178.175781 333.996094 172.859375 370.84375 C 170.980469 383.707031 170.753906 387.503906 170.753906 404.945312 C 170.753906 422.382812 170.980469 426.183594 172.859375 439.042969 C 185.597656 526.972656 248.226562 600.847656 333.171875 628.21875 C 348.382812 633.117188 364.417969 636.457031 382.652344 638.472656 C 389.753906 639.25 420.453125 639.25 427.554688 638.472656 C 459.03125 634.992188 485.695312 627.210938 511.996094 613.800781 C 516.027344 611.742188 516.804688 611.191406 516.253906 610.734375 C 515.886719 610.460938 498.707031 587.4375 478.089844 559.605469 L 440.613281 509.027344 L 393.648438 439.59375 C 367.808594 401.417969 346.550781 370.203125 346.367188 370.203125 C 346.183594 370.15625 346 401.007812 345.910156 438.679688 C 345.773438 504.636719 345.726562 507.289062 344.902344 508.847656 C 343.710938 511.089844 342.792969 512.003906 340.871094 513.011719 C 339.402344 513.742188 338.121094 513.882812 331.203125 513.882812 L 323.277344 513.882812 L 321.167969 512.554688 C 319.792969 511.683594 318.785156 510.539062 318.097656 509.210938 L 317.136719 507.152344 L 317.226562 415.378906 L 317.367188 323.5625 L 318.785156 321.777344 C 319.519531 320.816406 321.078125 319.578125 322.175781 318.984375 C 324.054688 318.070312 324.789062 317.976562 332.714844 317.976562 C 342.0625 317.976562 343.617188 318.34375 346.046875 321 C 346.734375 321.730469 372.164062 359.996094 402.585938 406.089844 C 433.007812 452.179688 474.609375 515.117188 495.042969 546.011719 L 532.152344 602.175781 L 534.03125 600.9375 C 550.664062 590.136719 568.257812 574.757812 582.183594 558.738281 C 611.828125 524.730469 630.933594 483.257812 637.347656 439.042969 C 639.226562 426.183594 639.457031 422.382812 639.457031 404.945312 C 639.457031 387.503906 639.226562 383.707031 637.347656 370.84375 C 624.609375 282.917969 561.980469 209.039062 477.035156 181.667969 C 462.054688 176.816406 446.109375 173.476562 428.242188 171.460938 C 423.84375 171.003906 393.558594 170.5 389.753906 170.867188 Z M 485.695312 312.484375 C 487.894531 313.582031 489.679688 315.6875 490.324219 317.886719 C 490.691406 319.074219 490.78125 344.523438 490.691406 401.878906 L 490.550781 484.175781 L 476.027344 461.929688 L 461.457031 439.683594 L 461.457031 379.859375 C 461.457031 341.183594 461.640625 319.441406 461.917969 318.390625 C 462.648438 315.824219 464.253906 313.8125 466.453125 312.621094 C 468.332031 311.660156 469.019531 311.570312 476.210938 311.570312 C 482.992188 311.570312 484.183594 311.660156 485.695312 312.484375 Z M 485.695312 312.484375 " fill-opacity="1" fill-rule="nonzero"/></g><path fill="#000000" d="M 529.863281 603.183594 C 528.257812 604.1875 527.753906 604.875 529.175781 604.097656 C 530.183594 603.503906 531.832031 602.265625 531.558594 602.222656 C 531.421875 602.222656 530.640625 602.679688 529.863281 603.183594 Z M 526.703125 605.242188 C 525.875 605.882812 525.875 605.929688 526.882812 605.425781 C 527.433594 605.148438 527.890625 604.828125 527.890625 604.738281 C 527.890625 604.371094 527.664062 604.464844 526.703125 605.242188 Z M 524.410156 606.613281 C 523.585938 607.253906 523.585938 607.300781 524.59375 606.796875 C 525.144531 606.523438 525.601562 606.203125 525.601562 606.113281 C 525.601562 605.746094 525.371094 605.835938 524.410156 606.613281 Z M 522.121094 607.988281 C 521.296875 608.628906 521.296875 608.675781 522.304688 608.171875 C 522.851562 607.898438 523.3125 607.578125 523.3125 607.484375 C 523.3125 607.117188 523.082031 607.210938 522.121094 607.988281 Z M 518.636719 609.820312 C 516.898438 610.734375 516.988281 611.101562 518.730469 610.230469 C 519.507812 609.820312 520.105469 609.40625 520.105469 609.316406 C 520.105469 608.996094 520.058594 609.039062 518.636719 609.820312 Z M 518.636719 609.820312 " fill-opacity="1" fill-rule="nonzero"/></svg>