<svg xmlns="http://www.w3.org/2000/svg" xmlns:xlink="http://www.w3.org/1999/xlink" width="1080" zoomAndPan="magnify" viewBox="0 0 810 809.999993" height="1080" preserveAspectRatio="xMidYMid meet" version="1.0"><rect x="-81" width="972" fill="#ffffff" y="-80.999999" height="971.999992" fill-opacity="1"/><rect x="-81" width="972" fill="#8cc84b" y="-80.999999" height="971.999992" fill-opacity="1"/><path fill="#ffffff" d="M 386 169.421875 C 387.433594 168.585938 388.917969 167.847656 390.453125 167.207031 C 391.984375 166.566406 393.554688 166.027344 395.160156 165.59375 C 396.761719 165.160156 398.390625 164.835938 400.035156 164.617188 C 401.683594 164.398438 403.339844 164.289062 405 164.289062 C 406.660156 164.289062 408.316406 164.398438 409.964844 164.617188 C 411.609375 164.835938 413.238281 165.160156 414.839844 165.59375 C 416.445312 166.027344 418.015625 166.566406 419.546875 167.207031 C 421.082031 167.847656 422.566406 168.585938 424 169.421875 L 597.578125 271.097656 C 608.457031 277.453125 615.734375 290.011719 615.625 303.015625 L 615.625 507.003906 C 615.710938 520.542969 607.710938 533.402344 596.230469 539.613281 L 423.273438 640.800781 C 411.527344 647.769531 396.230469 647.234375 384.847656 639.695312 L 332.953125 608.578125 C 329.417969 606.390625 325.433594 604.652344 322.9375 601.101562 C 325.148438 598.023438 329.089844 597.636719 332.289062 596.289062 C 339.503906 593.910156 346.136719 590.089844 352.761719 586.382812 C 354.441406 585.191406 356.488281 585.648438 358.09375 586.714844 L 402.367188 613.257812 C 405.53125 615.15625 408.734375 612.640625 411.441406 611.074219 L 581.265625 511.679688 C 583.359375 510.632812 584.519531 508.328125 584.351562 505.941406 L 584.371094 304.0625 C 584.609375 301.363281 583.101562 298.875 580.746094 297.769531 L 408.390625 197.019531 C 406.351562 195.570312 403.667969 195.5625 401.621094 197.007812 L 229.277344 297.800781 C 228.6875 298.066406 228.148438 298.421875 227.667969 298.855469 C 227.1875 299.292969 226.785156 299.789062 226.457031 300.351562 C 226.132812 300.914062 225.898438 301.511719 225.757812 302.144531 C 225.617188 302.777344 225.578125 303.417969 225.636719 304.0625 L 225.636719 505.957031 C 225.429688 508.332031 226.675781 510.59375 228.757812 511.617188 L 274.789062 538.578125 C 283.429688 543.402344 294.046875 546.269531 303.566406 542.574219 C 311.96875 539.449219 317.859375 530.554688 317.703125 521.300781 L 317.761719 320.605469 C 317.550781 317.632812 320.273438 315.183594 323.050781 315.460938 L 345.160156 315.480469 C 348.238281 315.40625 350.355469 318.601562 349.976562 321.601562 L 349.929688 523.5625 C 349.945312 541.503906 342.839844 561.023438 326.835938 569.804688 C 307.125 580.394531 282.757812 578.152344 263.285156 567.992188 C 246.421875 559.265625 230.335938 548.964844 213.773438 539.617188 C 202.257812 533.4375 194.300781 520.53125 194.378906 507.003906 L 194.378906 303.015625 C 194.382812 301.386719 194.488281 299.761719 194.703125 298.144531 C 194.917969 296.527344 195.234375 294.933594 195.65625 293.359375 C 196.082031 291.785156 196.605469 290.242188 197.230469 288.738281 C 197.855469 287.230469 198.574219 285.769531 199.390625 284.359375 C 200.203125 282.945312 201.109375 281.59375 202.101562 280.300781 C 203.09375 279.007812 204.167969 277.78125 205.320312 276.628906 C 206.472656 275.476562 207.695312 274.402344 208.988281 273.410156 C 210.28125 272.417969 211.636719 271.511719 213.046875 270.695312 Z M 436.300781 310.726562 C 461.449219 309.046875 488.367188 309.734375 510.996094 322.582031 C 528.511719 332.425781 538.226562 353.089844 538.539062 373.273438 C 538.050781 375.996094 535.304688 377.5 532.796875 377.3125 C 525.503906 377.300781 518.203125 377.414062 510.910156 377.257812 C 507.816406 377.378906 506.019531 374.425781 505.625 371.582031 C 503.53125 361.925781 498.453125 352.355469 489.683594 347.699219 C 476.230469 340.710938 460.625 341.0625 445.953125 341.210938 C 435.242188 341.800781 423.722656 342.765625 414.648438 349.292969 C 407.679688 354.242188 405.570312 364.230469 408.054688 372.277344 C 410.394531 378.054688 416.828125 379.917969 422.085938 381.632812 C 452.394531 389.855469 484.503906 389.035156 514.230469 399.855469 C 526.539062 404.265625 538.582031 412.835938 542.792969 426.203125 C 548.304688 444.109375 545.886719 465.523438 533.597656 479.898438 C 523.632812 491.730469 509.121094 498.167969 494.644531 501.671875 C 475.386719 506.125 455.402344 506.238281 435.851562 504.257812 C 417.460938 502.085938 398.328125 497.074219 384.132812 484.082031 C 371.996094 473.152344 366.066406 456.117188 366.652344 439.679688 C 366.789062 436.90625 369.457031 434.96875 372.019531 435.199219 L 394.0625 435.210938 C 397 434.992188 399.171875 437.625 399.320312 440.492188 C 400.675781 449.695312 404.015625 459.351562 411.75 464.8125 C 426.679688 474.800781 445.417969 474.121094 462.515625 474.398438 C 476.679688 473.746094 492.578125 473.550781 504.140625 463.835938 C 510.242188 458.300781 512.046875 449.03125 510.398438 441.058594 C 508.613281 434.332031 501.824219 431.195312 496 429.144531 C 466.082031 419.328125 433.613281 422.890625 403.984375 411.792969 C 391.957031 407.382812 380.324219 399.050781 375.707031 386.238281 C 369.261719 368.097656 372.210938 345.664062 385.789062 331.769531 C 399.019531 317.953125 418.132812 312.628906 436.296875 310.726562 Z M 436.300781 310.726562 " fill-opacity="1" fill-rule="evenodd"/></svg>