<svg xmlns="http://www.w3.org/2000/svg" xmlns:xlink="http://www.w3.org/1999/xlink" width="1080" zoomAndPan="magnify" viewBox="0 0 810 809.999993" height="1080" preserveAspectRatio="xMidYMid meet" version="1.0"><defs><clipPath id="f44a9b3bb7"><path d="M 173.679688 338 L 636.429688 338 L 636.429688 681.957031 L 173.679688 681.957031 Z M 173.679688 338 " clip-rule="nonzero"/></clipPath></defs><rect x="-81" width="972" fill="#ffffff" y="-80.999999" height="971.999992" fill-opacity="1"/><rect x="-81" width="972" fill="#61dafb" y="-80.999999" height="971.999992" fill-opacity="1"/><path fill="#ffffff" d="M 631.242188 380.976562 C 631.242188 350.75 593.386719 322.101562 535.347656 304.335938 C 548.742188 245.183594 542.789062 198.121094 516.558594 183.050781 C 510.515625 179.515625 503.445312 177.84375 495.726562 177.84375 L 495.726562 198.585938 C 500.003906 198.585938 503.445312 199.421875 506.328125 201.003906 C 518.980469 208.257812 524.46875 235.882812 520.1875 271.410156 C 519.167969 280.15625 517.492188 289.363281 515.445312 298.757812 C 497.214844 294.292969 477.308594 290.851562 456.382812 288.617188 C 443.828125 271.410156 430.804688 255.785156 417.691406 242.113281 C 448.011719 213.929688 476.472656 198.492188 495.820312 198.492188 L 495.820312 177.75 C 470.242188 177.75 436.757812 195.980469 402.902344 227.605469 C 369.046875 196.167969 335.5625 178.121094 309.984375 178.121094 L 309.984375 198.863281 C 329.238281 198.863281 357.792969 214.210938 388.113281 242.207031 C 375.09375 255.878906 362.070312 271.410156 349.699219 288.617188 C 328.679688 290.851562 308.773438 294.292969 290.546875 298.851562 C 288.40625 289.546875 286.824219 280.527344 285.707031 271.875 C 281.339844 236.347656 286.730469 208.722656 299.289062 201.375 C 302.078125 199.699219 305.707031 198.957031 309.984375 198.957031 L 309.984375 178.214844 C 302.171875 178.214844 295.101562 179.890625 288.964844 183.421875 C 262.828125 198.492188 256.96875 245.460938 270.453125 304.429688 C 212.601562 322.289062 174.933594 350.84375 174.933594 380.976562 C 174.933594 411.207031 212.789062 439.855469 270.828125 457.617188 C 257.433594 516.773438 263.386719 563.835938 289.617188 578.902344 C 295.660156 582.4375 302.730469 584.113281 310.542969 584.113281 C 336.121094 584.113281 369.605469 565.882812 403.460938 534.257812 C 437.316406 565.699219 470.800781 583.742188 496.378906 583.742188 C 504.191406 583.742188 511.257812 582.066406 517.398438 578.53125 C 543.535156 563.464844 549.394531 516.492188 535.90625 457.527344 C 593.574219 439.761719 631.242188 411.113281 631.242188 380.976562 Z M 510.144531 318.941406 C 506.703125 330.9375 502.425781 343.308594 497.585938 355.679688 C 493.773438 348.238281 489.773438 340.796875 485.402344 333.355469 C 481.125 325.914062 476.566406 318.660156 472.007812 311.59375 C 485.214844 313.546875 497.957031 315.964844 510.144531 318.941406 Z M 467.542969 417.996094 C 460.289062 430.554688 452.851562 442.457031 445.128906 453.527344 C 431.269531 454.734375 417.226562 455.386719 403.089844 455.386719 C 389.042969 455.386719 375 454.734375 361.234375 453.617188 C 353.515625 442.550781 345.980469 430.738281 338.722656 418.273438 C 331.65625 406.089844 325.238281 393.71875 319.378906 381.257812 C 325.144531 368.792969 331.65625 356.328125 338.632812 344.144531 C 345.886719 331.589844 353.328125 319.683594 361.046875 308.617188 C 374.90625 307.40625 388.949219 306.753906 403.089844 306.753906 C 417.132812 306.753906 431.179688 307.40625 444.941406 308.523438 C 452.664062 319.589844 460.199219 331.402344 467.453125 343.867188 C 474.519531 356.050781 480.9375 368.421875 486.796875 380.886719 C 480.9375 393.347656 474.519531 405.8125 467.542969 417.996094 Z M 497.585938 405.90625 C 502.472656 418.035156 506.75 430.375 510.421875 442.921875 C 498.238281 445.898438 485.402344 448.410156 472.101562 450.363281 C 476.660156 443.203125 481.214844 435.855469 485.496094 428.320312 C 489.773438 420.878906 493.773438 413.34375 497.585938 405.90625 Z M 403.273438 505.148438 C 394.625 496.21875 385.972656 486.265625 377.417969 475.382812 C 385.789062 475.757812 394.34375 476.035156 402.996094 476.035156 C 411.738281 476.035156 420.386719 475.851562 428.851562 475.382812 C 420.863281 485.765625 412.335938 495.6875 403.273438 505.148438 Z M 334.074219 450.363281 C 320.867188 448.410156 308.125 445.992188 295.941406 443.015625 C 299.378906 431.015625 303.660156 418.648438 308.496094 406.277344 C 312.3125 413.71875 316.308594 421.160156 320.679688 428.597656 C 325.050781 436.039062 329.515625 443.292969 334.074219 450.363281 Z M 402.808594 256.808594 C 411.460938 265.738281 420.109375 275.691406 428.664062 286.574219 C 420.292969 286.199219 411.738281 285.921875 403.089844 285.921875 C 394.34375 285.921875 385.695312 286.105469 377.230469 286.574219 C 385.222656 276.191406 393.746094 266.269531 402.808594 256.808594 Z M 333.980469 311.59375 C 329.421875 318.753906 324.867188 326.101562 320.589844 333.632812 C 316.308594 341.078125 312.3125 348.519531 308.496094 355.957031 C 303.609375 343.828125 299.332031 331.488281 295.660156 318.941406 C 307.84375 316.058594 320.679688 313.546875 333.980469 311.59375 Z M 249.804688 428.042969 C 216.882812 413.996094 195.582031 395.582031 195.582031 380.976562 C 195.582031 366.375 216.882812 347.867188 249.804688 333.914062 C 257.804688 330.472656 266.550781 327.402344 275.570312 324.519531 C 280.871094 342.75 287.847656 361.722656 296.5 381.164062 C 287.941406 400.511719 281.058594 419.390625 275.851562 437.527344 C 266.640625 434.644531 257.898438 431.484375 249.804688 428.042969 Z M 299.847656 560.953125 C 287.195312 553.699219 281.707031 526.074219 285.988281 490.542969 C 287.011719 481.800781 288.683594 472.59375 290.730469 463.199219 C 308.960938 467.664062 328.867188 471.105469 349.792969 473.335938 C 362.347656 490.542969 375.371094 506.167969 388.484375 519.84375 C 358.164062 548.023438 329.703125 563.464844 310.355469 563.464844 C 306.171875 563.371094 302.636719 562.535156 299.847656 560.953125 Z M 520.46875 490.078125 C 524.839844 525.609375 519.445312 553.234375 506.886719 560.582031 C 504.097656 562.253906 500.472656 563 496.191406 563 C 476.9375 563 448.382812 547.652344 418.0625 519.65625 C 431.085938 505.984375 444.105469 490.453125 456.476562 473.242188 C 477.496094 471.011719 497.402344 467.570312 515.628906 463.011719 C 517.769531 472.40625 519.445312 481.429688 520.46875 490.078125 Z M 556.277344 428.042969 C 548.277344 431.484375 539.535156 434.554688 530.511719 437.4375 C 525.210938 419.207031 518.234375 400.230469 509.585938 380.792969 C 518.144531 361.445312 525.023438 342.566406 530.234375 324.425781 C 539.441406 327.3125 548.183594 330.472656 556.371094 333.914062 C 589.296875 347.957031 610.59375 366.375 610.59375 380.976562 C 610.5 395.582031 589.203125 414.089844 556.277344 428.042969 Z M 556.277344 428.042969 " fill-opacity="1" fill-rule="nonzero"/><g clip-path="url(#f44a9b3bb7)"><path fill="#ffffff" d="M 402.996094 423.484375 C 426.472656 423.484375 445.5 404.453125 445.5 380.976562 C 445.5 357.503906 426.472656 338.472656 402.996094 338.472656 C 379.519531 338.472656 360.488281 357.503906 360.488281 380.976562 C 360.488281 404.453125 379.519531 423.484375 402.996094 423.484375 Z M 195.652344 657.296875 L 181.621094 657.296875 L 181.621094 681.464844 L 173.703125 681.464844 L 173.703125 621.726562 L 193.480469 621.726562 C 200.207031 621.726562 205.378906 623.261719 208.988281 626.324219 C 212.625 629.386719 214.445312 633.84375 214.445312 639.695312 C 214.445312 643.417969 213.433594 646.65625 211.40625 649.421875 C 209.410156 652.183594 206.621094 654.25 203.039062 655.617188 L 217.070312 680.972656 L 217.070312 681.464844 L 208.617188 681.464844 Z M 181.621094 650.855469 L 193.726562 650.855469 C 197.636719 650.855469 200.742188 649.84375 203.039062 647.820312 C 205.363281 645.796875 206.527344 643.089844 206.527344 639.695312 C 206.527344 636.003906 205.417969 633.175781 203.203125 631.207031 C 201.015625 629.234375 197.839844 628.238281 193.683594 628.210938 L 181.621094 628.210938 Z M 242.753906 682.285156 C 236.734375 682.285156 231.839844 680.316406 228.066406 676.375 C 224.289062 672.410156 222.402344 667.117188 222.402344 660.5 L 222.402344 659.105469 C 222.402344 654.699219 223.238281 650.777344 224.90625 647.328125 C 226.601562 643.855469 228.953125 641.148438 231.960938 639.207031 C 235 637.238281 238.28125 636.25 241.808594 636.25 C 247.582031 636.25 252.066406 638.152344 255.265625 641.953125 C 258.464844 645.753906 260.066406 651.199219 260.066406 658.28125 L 260.066406 661.441406 L 229.992188 661.441406 C 230.101562 665.820312 231.375 669.359375 233.808594 672.070312 C 236.269531 674.746094 239.390625 676.089844 243.164062 676.089844 C 245.84375 676.089844 248.113281 675.542969 249.972656 674.449219 C 251.835938 673.355469 253.460938 671.90625 254.855469 670.101562 L 259.492188 673.710938 C 255.769531 679.425781 250.191406 682.285156 242.753906 682.285156 Z M 241.808594 642.488281 C 238.746094 642.488281 236.175781 643.609375 234.097656 645.851562 C 232.015625 648.066406 230.730469 651.1875 230.238281 655.207031 L 252.476562 655.207031 L 252.476562 654.632812 C 252.257812 650.777344 251.21875 647.792969 249.359375 645.6875 C 247.496094 643.554688 244.980469 642.488281 241.808594 642.488281 Z M 296.292969 681.464844 C 295.855469 680.589844 295.5 679.03125 295.226562 676.785156 C 291.699219 680.449219 287.484375 682.285156 282.589844 682.285156 C 278.214844 682.285156 274.617188 681.054688 271.800781 678.589844 C 269.011719 676.101562 267.617188 672.957031 267.617188 669.15625 C 267.617188 664.535156 269.367188 660.949219 272.867188 658.40625 C 276.394531 655.835938 281.347656 654.546875 287.71875 654.546875 L 295.105469 654.546875 L 295.105469 651.0625 C 295.105469 648.410156 294.308594 646.300781 292.726562 644.746094 C 291.136719 643.15625 288.796875 642.367188 285.707031 642.367188 C 283 642.367188 280.730469 643.046875 278.898438 644.417969 C 277.066406 645.78125 276.148438 647.4375 276.148438 649.378906 L 268.519531 649.378906 C 268.519531 647.164062 269.296875 645.03125 270.855469 642.980469 C 272.441406 640.902344 274.578125 639.261719 277.257812 638.054688 C 279.964844 636.855469 282.929688 636.25 286.160156 636.25 C 291.277344 636.25 295.28125 637.535156 298.179688 640.109375 C 301.078125 642.652344 302.582031 646.167969 302.695312 650.652344 L 302.695312 671.082031 C 302.695312 675.160156 303.214844 678.398438 304.253906 680.804688 L 304.253906 681.464844 Z M 283.699219 675.679688 C 286.078125 675.679688 288.335938 675.0625 290.46875 673.832031 C 292.601562 672.601562 294.144531 671.003906 295.105469 669.03125 L 295.105469 659.925781 L 289.15625 659.925781 C 279.855469 659.925781 275.203125 662.644531 275.203125 668.089844 C 275.203125 670.46875 276 672.328125 277.585938 673.667969 C 279.171875 675.007812 281.210938 675.679688 283.699219 675.679688 Z M 332.398438 676.089844 C 335.105469 676.089844 337.472656 675.269531 339.496094 673.625 C 341.519531 671.984375 342.640625 669.933594 342.859375 667.472656 L 350.039062 667.472656 C 349.902344 670.015625 349.027344 672.4375 347.414062 674.734375 C 345.800781 677.035156 343.640625 678.867188 340.929688 680.230469 C 338.25 681.601562 335.40625 682.285156 332.398438 682.285156 C 326.355469 682.285156 321.539062 680.273438 317.957031 676.253906 C 314.402344 672.203125 312.621094 666.679688 312.621094 659.675781 L 312.621094 658.40625 C 312.621094 654.085938 313.414062 650.242188 315.003906 646.878906 C 316.589844 643.511719 318.859375 640.902344 321.8125 639.042969 C 324.792969 637.179688 328.308594 636.25 332.355469 636.25 C 337.335938 636.25 341.464844 637.742188 344.746094 640.722656 C 348.054688 643.703125 349.820312 647.574219 350.039062 652.332031 L 342.859375 652.332031 C 342.640625 649.460938 341.546875 647.109375 339.578125 645.277344 C 337.636719 643.417969 335.226562 642.488281 332.355469 642.488281 C 328.5 642.488281 325.503906 643.882812 323.371094 646.671875 C 321.265625 649.433594 320.210938 653.441406 320.210938 658.695312 L 320.210938 660.128906 C 320.210938 665.242188 321.265625 669.183594 323.371094 671.945312 C 325.476562 674.707031 328.488281 676.089844 332.398438 676.089844 Z M 368.871094 626.324219 L 368.871094 637.070312 L 377.160156 637.070312 L 377.160156 642.9375 L 368.871094 642.9375 L 368.871094 670.46875 C 368.871094 672.246094 369.242188 673.585938 369.980469 674.488281 C 370.71875 675.363281 371.976562 675.800781 373.753906 675.800781 C 374.628906 675.800781 375.832031 675.636719 377.363281 675.308594 L 377.363281 681.464844 C 375.367188 682.011719 373.425781 682.285156 371.539062 682.285156 C 368.148438 682.285156 365.589844 681.257812 363.863281 679.207031 C 362.144531 677.15625 361.28125 674.242188 361.28125 670.46875 L 361.28125 642.9375 L 353.199219 642.9375 L 353.199219 637.070312 L 361.28125 637.070312 L 361.28125 626.324219 Z M 454.003906 681.464844 L 446.085938 681.464844 L 416.011719 635.429688 L 416.011719 681.464844 L 408.09375 681.464844 L 408.09375 621.726562 L 416.011719 621.726562 L 446.167969 667.964844 L 446.167969 621.726562 L 454.003906 621.726562 Z M 494.210938 681.464844 C 493.773438 680.589844 493.417969 679.03125 493.144531 676.785156 C 489.613281 680.449219 485.402344 682.285156 480.507812 682.285156 C 476.132812 682.285156 472.53125 681.054688 469.71875 678.589844 C 466.929688 676.101562 465.53125 672.957031 465.53125 669.15625 C 465.53125 664.535156 467.28125 660.949219 470.785156 658.40625 C 474.3125 655.835938 479.261719 654.546875 485.636719 654.546875 L 493.019531 654.546875 L 493.019531 651.0625 C 493.019531 648.410156 492.226562 646.300781 490.640625 644.746094 C 489.054688 643.15625 486.714844 642.367188 483.625 642.367188 C 480.917969 642.367188 478.648438 643.046875 476.816406 644.417969 C 474.984375 645.78125 474.066406 647.4375 474.066406 649.378906 L 466.433594 649.378906 C 466.433594 647.164062 467.214844 645.03125 468.773438 642.980469 C 470.359375 640.902344 472.492188 639.261719 475.175781 638.054688 C 477.882812 636.855469 480.847656 636.25 484.074219 636.25 C 489.191406 636.25 493.199219 637.535156 496.097656 640.109375 C 498.996094 642.652344 500.5 646.167969 500.609375 650.652344 L 500.609375 671.082031 C 500.609375 675.160156 501.128906 678.398438 502.171875 680.804688 L 502.171875 681.464844 Z M 481.617188 675.679688 C 483.996094 675.679688 486.25 675.0625 488.386719 673.832031 C 490.515625 672.601562 492.0625 671.003906 493.019531 669.03125 L 493.019531 659.925781 L 487.070312 659.925781 C 477.773438 659.925781 473.121094 662.644531 473.121094 668.089844 C 473.121094 670.46875 473.917969 672.328125 475.5 673.667969 C 477.085938 675.007812 479.125 675.679688 481.617188 675.679688 Z M 522.804688 626.324219 L 522.804688 637.070312 L 531.09375 637.070312 L 531.09375 642.9375 L 522.804688 642.9375 L 522.804688 670.46875 C 522.804688 672.246094 523.175781 673.585938 523.914062 674.488281 C 524.652344 675.363281 525.910156 675.800781 527.691406 675.800781 C 528.5625 675.800781 529.765625 675.636719 531.300781 675.308594 L 531.300781 681.464844 C 529.300781 682.011719 527.359375 682.285156 525.472656 682.285156 C 522.082031 682.285156 519.523438 681.257812 517.800781 679.207031 C 516.078125 677.15625 515.21875 674.242188 515.21875 670.46875 L 515.21875 642.9375 L 507.136719 642.9375 L 507.136719 637.070312 L 515.21875 637.070312 L 515.21875 626.324219 Z M 548.246094 681.464844 L 540.652344 681.464844 L 540.652344 637.074219 L 548.246094 637.074219 Z M 540.039062 625.296875 C 540.039062 624.066406 540.40625 623.027344 541.144531 622.179688 C 541.910156 621.332031 543.03125 620.90625 544.507812 620.90625 C 545.988281 620.90625 547.109375 621.332031 547.875 622.179688 C 548.640625 623.027344 549.023438 624.066406 549.023438 625.296875 C 549.023438 626.527344 548.640625 627.554688 547.875 628.375 C 547.109375 629.195312 545.988281 629.605469 544.507812 629.605469 C 543.03125 629.605469 541.910156 629.195312 541.144531 628.375 C 540.40625 627.554688 540.039062 626.527344 540.039062 625.296875 Z M 575.074219 671.167969 L 586.070312 637.074219 L 593.824219 637.074219 L 577.90625 681.464844 L 572.121094 681.464844 L 556.039062 637.074219 L 563.792969 637.074219 Z M 618.972656 682.285156 C 612.957031 682.285156 608.0625 680.316406 604.285156 676.375 C 600.511719 672.410156 598.625 667.117188 598.625 660.5 L 598.625 659.105469 C 598.625 654.699219 599.460938 650.777344 601.128906 647.328125 C 602.824219 643.855469 605.175781 641.148438 608.183594 639.207031 C 611.222656 637.238281 614.503906 636.25 618.03125 636.25 C 623.800781 636.25 628.289062 638.152344 631.488281 641.953125 C 634.6875 645.753906 636.289062 651.199219 636.289062 658.28125 L 636.289062 661.441406 L 606.214844 661.441406 C 606.324219 665.820312 607.59375 669.359375 610.03125 672.070312 C 612.492188 674.746094 615.609375 676.089844 619.382812 676.089844 C 622.066406 676.089844 624.335938 675.542969 626.195312 674.449219 C 628.054688 673.355469 629.683594 671.90625 631.078125 670.097656 L 635.714844 673.710938 C 631.992188 679.425781 626.414062 682.285156 618.972656 682.285156 Z M 618.03125 642.488281 C 614.96875 642.488281 612.394531 643.609375 610.316406 645.851562 C 608.238281 648.066406 606.953125 651.1875 606.460938 655.207031 L 628.699219 655.207031 L 628.699219 654.632812 C 628.480469 650.777344 627.4375 647.792969 625.578125 645.6875 C 623.71875 643.554688 621.203125 642.488281 618.03125 642.488281 Z M 618.03125 642.488281 " fill-opacity="1" fill-rule="nonzero"/></g></svg>