<svg xmlns="http://www.w3.org/2000/svg" xmlns:xlink="http://www.w3.org/1999/xlink" width="1080" zoomAndPan="magnify" viewBox="0 0 810 809.999993" height="1080" preserveAspectRatio="xMidYMid meet" version="1.0"><defs><clipPath id="98f0b38d0c"><path d="M 134 163.738281 L 676 163.738281 L 676 645.988281 L 134 645.988281 Z M 134 163.738281 " clip-rule="nonzero"/></clipPath></defs><rect x="-81" width="972" fill="#ffffff" y="-80.999999" height="971.999992" fill-opacity="1"/><rect x="-81" width="972" fill="#61dafb" y="-80.999999" height="971.999992" fill-opacity="1"/><g clip-path="url(#98f0b38d0c)"><path fill="#ffffff" d="M 675.910156 405.054688 C 675.910156 369.160156 630.960938 335.144531 562.046875 314.050781 C 577.949219 243.808594 570.882812 187.925781 539.738281 170.035156 C 532.558594 165.835938 524.164062 163.847656 515 163.847656 L 515 188.476562 C 520.078125 188.476562 524.164062 189.472656 527.589844 191.347656 C 542.609375 199.964844 549.125 232.765625 544.042969 274.953125 C 542.828125 285.335938 540.839844 296.269531 538.410156 307.421875 C 516.765625 302.121094 493.128906 298.035156 468.28125 295.386719 C 453.371094 274.953125 437.910156 256.398438 422.335938 240.164062 C 458.339844 206.699219 492.136719 188.367188 515.109375 188.367188 L 515.109375 163.738281 C 484.738281 163.738281 444.976562 185.386719 404.777344 222.933594 C 364.578125 185.605469 324.816406 164.179688 294.445312 164.179688 L 294.445312 188.808594 C 317.308594 188.808594 351.214844 207.03125 387.21875 240.273438 C 371.753906 256.507812 356.292969 274.953125 341.605469 295.386719 C 316.644531 298.035156 293.011719 302.121094 271.363281 307.535156 C 268.824219 296.488281 266.945312 285.777344 265.621094 275.503906 C 260.429688 233.316406 266.835938 200.515625 281.746094 191.789062 C 285.058594 189.804688 289.367188 188.917969 294.445312 188.917969 L 294.445312 164.289062 C 285.167969 164.289062 276.777344 166.277344 269.488281 170.476562 C 238.453125 188.367188 231.496094 244.140625 247.507812 314.160156 C 178.8125 335.363281 134.085938 369.269531 134.085938 405.054688 C 134.085938 440.945312 179.035156 474.964844 247.949219 496.058594 C 232.046875 566.296875 239.113281 622.183594 270.257812 640.074219 C 277.4375 644.269531 285.832031 646.257812 295.109375 646.257812 C 325.480469 646.257812 365.238281 624.613281 405.441406 587.0625 C 445.640625 624.390625 485.398438 645.816406 515.769531 645.816406 C 525.046875 645.816406 533.441406 643.828125 540.730469 639.632812 C 571.765625 621.738281 578.722656 565.96875 562.710938 495.945312 C 631.183594 474.851562 675.910156 440.835938 675.910156 405.054688 Z M 532.117188 331.390625 C 528.03125 345.636719 522.949219 360.324219 517.207031 375.011719 C 512.679688 366.179688 507.929688 357.34375 502.738281 348.507812 C 497.660156 339.671875 492.246094 331.058594 486.835938 322.664062 C 502.519531 324.984375 517.648438 327.855469 532.117188 331.390625 Z M 481.535156 449.007812 C 472.917969 463.917969 464.085938 478.054688 454.917969 491.199219 C 438.460938 492.632812 421.785156 493.40625 405 493.40625 C 388.320312 493.40625 371.644531 492.632812 355.300781 491.308594 C 346.132812 478.164062 337.1875 464.140625 328.574219 449.339844 C 320.179688 434.871094 312.558594 420.183594 305.601562 405.386719 C 312.449219 390.585938 320.179688 375.785156 328.460938 361.320312 C 337.078125 346.410156 345.910156 332.273438 355.078125 319.128906 C 371.535156 317.695312 388.210938 316.921875 405 316.921875 C 421.675781 316.921875 438.351562 317.695312 454.695312 319.019531 C 463.863281 332.164062 472.808594 346.1875 481.425781 360.988281 C 489.816406 375.457031 497.4375 390.144531 504.394531 404.941406 C 497.4375 419.742188 489.816406 434.542969 481.535156 449.007812 Z M 517.207031 434.652344 C 523.171875 449.449219 528.25 464.25 532.449219 478.609375 C 517.980469 482.140625 502.738281 485.125 486.945312 487.441406 C 492.359375 478.9375 497.769531 470.214844 502.847656 461.269531 C 507.929688 452.433594 512.679688 443.488281 517.207031 434.652344 Z M 405.21875 552.492188 C 394.949219 541.890625 384.675781 530.074219 374.515625 517.152344 C 384.457031 517.59375 394.617188 517.925781 404.886719 517.925781 C 415.269531 517.925781 425.539062 517.703125 435.589844 517.152344 C 425.652344 530.074219 415.378906 541.890625 405.21875 552.492188 Z M 323.050781 487.441406 C 307.367188 485.125 292.238281 482.253906 277.769531 478.71875 C 281.855469 464.472656 286.9375 449.78125 292.679688 435.09375 C 297.207031 443.929688 301.957031 452.765625 307.148438 461.601562 C 312.335938 470.433594 317.640625 479.050781 323.050781 487.441406 Z M 404.667969 257.613281 C 414.9375 268.214844 425.210938 280.035156 435.371094 292.957031 C 425.429688 292.511719 415.269531 292.183594 405 292.183594 C 394.617188 292.183594 384.34375 292.402344 374.296875 292.957031 C 384.234375 280.035156 394.507812 268.214844 404.667969 257.613281 Z M 322.941406 322.664062 C 317.527344 331.167969 312.117188 339.894531 307.035156 348.839844 C 301.957031 357.675781 297.207031 366.507812 292.679688 375.34375 C 286.714844 360.546875 281.636719 345.746094 277.4375 331.390625 C 291.90625 327.964844 307.148438 324.984375 322.941406 322.664062 Z M 222.992188 460.9375 C 183.894531 444.261719 158.601562 422.394531 158.601562 405.054688 C 158.601562 387.714844 183.894531 365.738281 222.992188 349.171875 C 232.488281 345.082031 242.871094 341.4375 253.582031 338.015625 C 259.878906 359.660156 268.160156 382.191406 278.433594 405.273438 C 268.269531 428.246094 260.097656 450.664062 253.914062 472.203125 C 242.980469 468.777344 232.597656 465.023438 222.992188 460.9375 Z M 282.40625 618.757812 C 267.386719 610.144531 260.871094 577.34375 265.953125 535.152344 C 267.167969 524.773438 269.15625 513.839844 271.585938 502.683594 C 293.230469 507.984375 316.867188 512.070312 341.714844 514.722656 C 356.625 535.152344 372.085938 553.707031 387.660156 569.941406 C 351.65625 603.40625 317.859375 621.738281 294.886719 621.738281 C 289.917969 621.628906 285.722656 620.636719 282.40625 618.757812 Z M 544.375 534.601562 C 549.566406 576.789062 543.160156 609.589844 528.25 618.316406 C 524.9375 620.304688 520.628906 621.1875 515.550781 621.1875 C 492.6875 621.1875 458.785156 602.964844 422.78125 569.722656 C 438.242188 553.488281 453.703125 535.042969 468.390625 514.613281 C 493.351562 511.960938 516.984375 507.875 538.632812 502.464844 C 541.171875 513.617188 543.160156 524.332031 544.375 534.601562 Z M 586.894531 460.9375 C 577.398438 465.023438 567.015625 468.667969 556.304688 472.089844 C 550.007812 450.445312 541.726562 427.914062 531.453125 404.832031 C 541.613281 381.859375 549.789062 359.441406 555.972656 337.90625 C 566.90625 341.328125 577.289062 345.082031 587.007812 349.171875 C 626.101562 365.847656 651.394531 387.714844 651.394531 405.054688 C 651.28125 422.394531 625.992188 444.371094 586.894531 460.9375 Z M 586.894531 460.9375 " fill-opacity="1" fill-rule="nonzero"/></g><path fill="#ffffff" d="M 455.359375 405.054688 C 455.359375 406.707031 455.277344 408.355469 455.117188 410 C 454.953125 411.644531 454.710938 413.277344 454.390625 414.898438 C 454.066406 416.519531 453.667969 418.121094 453.1875 419.703125 C 452.707031 421.285156 452.148438 422.839844 451.519531 424.367188 C 450.886719 425.894531 450.179688 427.386719 449.398438 428.847656 C 448.621094 430.304688 447.773438 431.71875 446.851562 433.09375 C 445.933594 434.46875 444.953125 435.792969 443.902344 437.074219 C 442.855469 438.351562 441.746094 439.574219 440.578125 440.742188 C 439.40625 441.910156 438.183594 443.019531 436.90625 444.070312 C 435.628906 445.117188 434.304688 446.101562 432.929688 447.019531 C 431.554688 447.9375 430.136719 448.785156 428.679688 449.566406 C 427.222656 450.34375 425.730469 451.050781 424.203125 451.683594 C 422.675781 452.316406 421.121094 452.871094 419.539062 453.351562 C 417.957031 453.832031 416.355469 454.234375 414.734375 454.554688 C 413.113281 454.878906 411.480469 455.121094 409.835938 455.28125 C 408.191406 455.445312 406.539062 455.527344 404.886719 455.527344 C 403.234375 455.527344 401.585938 455.445312 399.941406 455.28125 C 398.296875 455.121094 396.664062 454.878906 395.042969 454.554688 C 393.417969 454.234375 391.816406 453.832031 390.238281 453.351562 C 388.65625 452.871094 387.101562 452.316406 385.574219 451.683594 C 384.046875 451.050781 382.554688 450.34375 381.09375 449.566406 C 379.636719 448.785156 378.222656 447.9375 376.847656 447.019531 C 375.472656 446.101562 374.148438 445.117188 372.867188 444.070312 C 371.589844 443.019531 370.367188 441.910156 369.199219 440.742188 C 368.03125 439.574219 366.921875 438.351562 365.871094 437.074219 C 364.824219 435.792969 363.839844 434.46875 362.921875 433.09375 C 362.003906 431.71875 361.15625 430.304688 360.375 428.847656 C 359.597656 427.386719 358.890625 425.894531 358.257812 424.367188 C 357.625 422.839844 357.070312 421.285156 356.589844 419.703125 C 356.109375 418.121094 355.707031 416.519531 355.386719 414.898438 C 355.0625 413.277344 354.820312 411.644531 354.660156 410 C 354.496094 408.355469 354.414062 406.707031 354.414062 405.054688 C 354.414062 403.402344 354.496094 401.75 354.660156 400.105469 C 354.820312 398.460938 355.0625 396.828125 355.386719 395.207031 C 355.707031 393.585938 356.109375 391.984375 356.589844 390.402344 C 357.070312 388.820312 357.625 387.265625 358.257812 385.738281 C 358.890625 384.210938 359.597656 382.71875 360.375 381.261719 C 361.15625 379.804688 362.003906 378.386719 362.921875 377.011719 C 363.839844 375.636719 364.824219 374.3125 365.871094 373.035156 C 366.921875 371.757812 368.03125 370.535156 369.199219 369.363281 C 370.367188 368.195312 371.589844 367.085938 372.867188 366.039062 C 374.148438 364.988281 375.472656 364.007812 376.847656 363.085938 C 378.222656 362.167969 379.636719 361.320312 381.09375 360.542969 C 382.554688 359.761719 384.046875 359.054688 385.574219 358.421875 C 387.101562 357.792969 388.65625 357.234375 390.238281 356.753906 C 391.816406 356.273438 393.417969 355.875 395.042969 355.550781 C 396.664062 355.230469 398.296875 354.988281 399.941406 354.824219 C 401.585938 354.664062 403.234375 354.582031 404.886719 354.582031 C 406.539062 354.582031 408.191406 354.664062 409.835938 354.824219 C 411.480469 354.988281 413.113281 355.230469 414.734375 355.550781 C 416.355469 355.875 417.957031 356.273438 419.539062 356.753906 C 421.121094 357.234375 422.675781 357.792969 424.203125 358.421875 C 425.730469 359.054688 427.222656 359.761719 428.679688 360.542969 C 430.136719 361.320312 431.554688 362.167969 432.929688 363.085938 C 434.304688 364.007812 435.628906 364.988281 436.90625 366.039062 C 438.183594 367.085938 439.40625 368.195312 440.578125 369.363281 C 441.746094 370.535156 442.855469 371.757812 443.902344 373.035156 C 444.953125 374.3125 445.933594 375.636719 446.851562 377.011719 C 447.773438 378.386719 448.621094 379.804688 449.398438 381.261719 C 450.179688 382.71875 450.886719 384.210938 451.519531 385.738281 C 452.148438 387.265625 452.707031 388.820312 453.1875 390.402344 C 453.667969 391.984375 454.066406 393.585938 454.390625 395.207031 C 454.710938 396.828125 454.953125 398.460938 455.117188 400.105469 C 455.277344 401.75 455.359375 403.402344 455.359375 405.054688 Z M 455.359375 405.054688 " fill-opacity="1" fill-rule="nonzero"/></svg>