<svg xmlns="http://www.w3.org/2000/svg" xmlns:xlink="http://www.w3.org/1999/xlink" width="1080" zoomAndPan="magnify" viewBox="0 0 810 809.999993" height="1080" preserveAspectRatio="xMidYMid meet" version="1.0"><rect x="-81" width="972" fill="#ffffff" y="-80.999999" height="971.999992" fill-opacity="1"/><rect x="-81" width="972" fill="#764abc" y="-80.999999" height="971.999992" fill-opacity="1"/><path fill="#ffffff" d="M 496.636719 490.109375 C 514.972656 488.214844 528.882812 472.40625 528.253906 453.429688 C 528.207031 452.300781 528.109375 451.171875 527.957031 450.050781 C 527.804688 448.925781 527.601562 447.816406 527.339844 446.710938 C 527.082031 445.609375 526.773438 444.523438 526.410156 443.449219 C 526.046875 442.375 525.632812 441.324219 525.171875 440.289062 C 524.707031 439.253906 524.195312 438.246094 523.636719 437.261719 C 523.074219 436.277344 522.46875 435.320312 521.820312 434.394531 C 521.167969 433.46875 520.472656 432.574219 519.738281 431.714844 C 519 430.855469 518.226562 430.03125 517.410156 429.246094 C 516.59375 428.457031 515.742188 427.714844 514.855469 427.007812 C 513.96875 426.304688 513.050781 425.640625 512.101562 425.027344 C 511.152344 424.410156 510.175781 423.839844 509.171875 423.3125 C 508.167969 422.789062 507.140625 422.316406 506.089844 421.890625 C 505.042969 421.464844 503.972656 421.089844 502.886719 420.765625 C 501.804688 420.445312 500.703125 420.171875 499.59375 419.953125 C 498.480469 419.734375 497.363281 419.570312 496.234375 419.460938 C 495.109375 419.347656 493.980469 419.289062 492.847656 419.289062 L 491.582031 419.289062 C 471.976562 419.917969 456.800781 436.359375 457.441406 455.964844 C 458.070312 465.449219 461.859375 473.667969 467.554688 479.363281 C 446.054688 521.734375 413.171875 552.71875 363.851562 578.640625 C 330.339844 596.34375 295.558594 602.671875 260.78125 598.25 C 232.324219 594.449219 210.199219 581.808594 196.285156 560.9375 C 176.054688 529.953125 174.152344 496.441406 191.234375 462.921875 C 203.25 438.894531 222.21875 421.183594 234.226562 412.332031 C 231.703125 404.109375 227.902344 390.199219 226.007812 380.082031 C 134.308594 446.472656 143.792969 536.269531 171.617188 578.640625 C 192.488281 610.257812 234.851562 629.867188 281.644531 629.867188 C 294.292969 629.867188 306.9375 628.601562 319.585938 625.445312 C 400.523438 609.636719 461.859375 561.570312 496.636719 490.117188 Z M 607.925781 411.699219 C 559.871094 355.414062 489.046875 324.429688 408.109375 324.429688 L 397.996094 324.429688 C 392.304688 313.050781 380.292969 305.453125 367.011719 305.453125 L 365.746094 305.453125 C 346.148438 306.085938 330.972656 322.527344 331.605469 342.132812 C 331.648438 343.265625 331.746094 344.390625 331.898438 345.511719 C 332.050781 346.636719 332.257812 347.75 332.515625 348.851562 C 332.773438 349.953125 333.085938 351.042969 333.449219 352.113281 C 333.8125 353.1875 334.222656 354.242188 334.6875 355.273438 C 335.152344 356.308594 335.660156 357.316406 336.222656 358.300781 C 336.78125 359.285156 337.386719 360.242188 338.039062 361.167969 C 338.6875 362.09375 339.382812 362.988281 340.121094 363.847656 C 340.855469 364.707031 341.632812 365.53125 342.449219 366.316406 C 343.261719 367.105469 344.113281 367.851562 345 368.554688 C 345.886719 369.257812 346.804688 369.921875 347.753906 370.539062 C 348.703125 371.15625 349.679688 371.726562 350.6875 372.25 C 351.691406 372.773438 352.71875 373.246094 353.765625 373.671875 C 354.816406 374.097656 355.882812 374.472656 356.96875 374.796875 C 358.054688 375.121094 359.152344 375.390625 360.265625 375.609375 C 361.375 375.828125 362.496094 375.992188 363.621094 376.101562 C 364.75 376.214844 365.878906 376.273438 367.011719 376.277344 L 368.273438 376.277344 C 369.929688 376.195312 371.574219 376 373.203125 375.6875 C 374.832031 375.378906 376.433594 374.957031 378.003906 374.421875 C 379.574219 373.886719 381.097656 373.246094 382.582031 372.5 C 384.0625 371.753906 385.484375 370.90625 386.847656 369.960938 C 388.207031 369.015625 389.5 367.980469 390.71875 366.855469 C 391.933594 365.726562 393.070312 364.523438 394.117188 363.238281 C 395.167969 361.953125 396.125 360.605469 396.984375 359.1875 C 397.84375 357.769531 398.605469 356.296875 399.257812 354.773438 L 410.636719 354.773438 C 458.695312 354.773438 504.222656 368.6875 545.324219 395.875 C 576.941406 416.742188 599.707031 443.929688 612.347656 476.820312 C 623.09375 503.382812 622.460938 529.304688 611.085938 551.4375 C 593.382812 584.949219 563.660156 603.292969 524.453125 603.292969 C 499.164062 603.292969 475.132812 595.707031 462.484375 590.011719 C 455.527344 596.335938 442.878906 606.453125 434.027344 612.777344 C 461.222656 625.4375 489.046875 632.390625 515.601562 632.390625 C 576.308594 632.390625 621.199219 598.871094 638.28125 565.359375 C 656.613281 528.683594 655.351562 465.449219 607.925781 411.699219 Z M 286.699219 500.855469 C 286.742188 501.988281 286.839844 503.113281 286.992188 504.238281 C 287.144531 505.359375 287.351562 506.472656 287.609375 507.574219 C 287.867188 508.675781 288.179688 509.765625 288.542969 510.835938 C 288.902344 511.910156 289.316406 512.964844 289.78125 513.996094 C 290.242188 515.03125 290.753906 516.039062 291.316406 517.023438 C 291.875 518.007812 292.480469 518.964844 293.132812 519.890625 C 293.78125 520.816406 294.476562 521.710938 295.214844 522.570312 C 295.949219 523.433594 296.726562 524.253906 297.539062 525.042969 C 298.355469 525.828125 299.207031 526.574219 300.09375 527.277344 C 300.980469 527.984375 301.898438 528.644531 302.847656 529.261719 C 303.796875 529.878906 304.773438 530.449219 305.777344 530.972656 C 306.785156 531.496094 307.808594 531.96875 308.859375 532.394531 C 309.910156 532.820312 310.976562 533.195312 312.0625 533.519531 C 313.148438 533.84375 314.246094 534.113281 315.359375 534.332031 C 316.46875 534.550781 317.589844 534.714844 318.714844 534.828125 C 319.84375 534.9375 320.972656 534.996094 322.105469 535 L 323.367188 535 C 342.972656 534.367188 358.144531 517.925781 357.511719 498.320312 C 357.464844 497.1875 357.367188 496.0625 357.214844 494.941406 C 357.0625 493.816406 356.859375 492.703125 356.597656 491.601562 C 356.339844 490.5 356.03125 489.410156 355.667969 488.339844 C 355.304688 487.265625 354.890625 486.210938 354.429688 485.179688 C 353.964844 484.144531 353.453125 483.136719 352.894531 482.152344 C 352.335938 481.167969 351.730469 480.210938 351.078125 479.285156 C 350.425781 478.359375 349.734375 477.464844 348.996094 476.605469 C 348.257812 475.746094 347.484375 474.921875 346.667969 474.132812 C 345.851562 473.347656 345.003906 472.601562 344.117188 471.898438 C 343.230469 471.191406 342.3125 470.53125 341.359375 469.914062 C 340.410156 469.296875 339.433594 468.726562 338.429688 468.203125 C 337.425781 467.679688 336.398438 467.207031 335.347656 466.78125 C 334.300781 466.355469 333.230469 465.980469 332.148438 465.65625 C 331.0625 465.332031 329.964844 465.0625 328.851562 464.84375 C 327.742188 464.625 326.621094 464.460938 325.492188 464.351562 C 324.367188 464.238281 323.238281 464.179688 322.105469 464.175781 L 320.839844 464.175781 C 319.578125 464.175781 317.675781 464.175781 316.417969 464.808594 C 290.496094 421.804688 279.742188 375.019531 283.539062 324.429688 C 286.066406 286.488281 298.714844 253.609375 320.851562 226.414062 C 339.183594 203.015625 374.601562 191.628906 398.628906 191.007812 C 465.652344 189.742188 494.109375 273.214844 496.003906 306.726562 C 504.222656 308.621094 518.136719 313.050781 527.621094 316.210938 C 520.03125 213.769531 456.800781 160.652344 396.09375 160.652344 C 339.183594 160.652344 286.699219 201.753906 265.828125 262.460938 C 236.738281 343.402344 255.714844 421.183594 291.121094 482.519531 C 287.960938 486.941406 286.058594 493.898438 286.699219 500.855469 Z M 286.699219 500.855469 " fill-opacity="1" fill-rule="nonzero"/></svg>