<svg xmlns="http://www.w3.org/2000/svg" xmlns:xlink="http://www.w3.org/1999/xlink" width="1080" zoomAndPan="magnify" viewBox="0 0 810 809.999993" height="1080" preserveAspectRatio="xMidYMid meet" version="1.0"><defs><clipPath id="a91e350237"><path d="M 123.488281 236.09375 L 686.738281 236.09375 L 686.738281 573.59375 L 123.488281 573.59375 Z M 123.488281 236.09375 " clip-rule="nonzero"/></clipPath></defs><rect x="-81" width="972" fill="#ffffff" y="-80.999999" height="971.999992" fill-opacity="1"/><rect x="-81" width="972" fill="#06b6d4" y="-80.999999" height="971.999992" fill-opacity="1"/><g clip-path="url(#a91e350237)"><path fill="#ffffff" d="M 404.996094 236.136719 C 329.925781 236.136719 283.007812 273.660156 264.238281 348.703125 C 292.390625 311.179688 325.234375 297.113281 362.765625 306.488281 C 384.183594 311.839844 399.488281 327.378906 416.4375 344.570312 C 444.035156 372.578125 475.976562 404.992188 545.753906 404.992188 C 620.816406 404.992188 667.742188 367.464844 686.503906 292.417969 C 658.355469 329.941406 625.511719 344.015625 587.972656 334.636719 C 566.5625 329.285156 551.257812 313.75 534.3125 296.554688 C 506.714844 268.550781 474.765625 236.136719 404.996094 236.136719 Z M 264.238281 404.992188 C 189.171875 404.992188 142.25 442.515625 123.488281 517.566406 C 151.632812 480.042969 184.476562 465.96875 222.015625 475.351562 C 243.425781 480.710938 258.730469 496.242188 275.679688 513.425781 C 303.277344 541.433594 335.226562 573.855469 404.996094 573.855469 C 480.066406 573.855469 526.984375 536.328125 545.753906 461.277344 C 517.597656 498.804688 484.753906 512.878906 447.222656 503.492188 C 425.804688 498.148438 410.5 482.605469 393.554688 465.417969 C 365.957031 437.410156 334.015625 404.992188 264.238281 404.992188 Z M 264.238281 404.992188 " fill-opacity="1" fill-rule="nonzero"/></g></svg>