<svg width="37" height="24" viewBox="0 0 37 24" fill="none" xmlns="http://www.w3.org/2000/svg">
<path d="M33.72 13.96C33.72 14.88 33.4933 15.7267 33.04 16.5C32.5867 17.26 31.98 17.8667 31.22 18.32C30.46 18.7733 29.6133 19 28.68 19C27.8533 19 27.0867 18.82 26.38 18.46C25.6733 18.1 25.0867 17.6133 24.62 17C24.1667 17.6133 23.5867 18.1 22.88 18.46C22.1733 18.82 21.4067 19 20.58 19C19.66 19 18.8133 18.7733 18.04 18.32C17.28 17.8667 16.6733 17.26 16.22 16.5C15.7667 15.7267 15.54 14.88 15.54 13.96V5H17.54V13.96C17.54 14.52 17.6733 15.0333 17.94 15.5C18.22 15.9533 18.5867 16.32 19.04 16.6C19.5067 16.8667 20.02 17 20.58 17C21.1267 17 21.6267 16.8733 22.08 16.62C22.5333 16.3533 22.8933 16 23.16 15.56C23.44 15.12 23.5933 14.6333 23.62 14.1V5H25.64V13.96C25.64 14.52 25.7733 15.0333 26.04 15.5C26.32 15.9533 26.6867 16.32 27.14 16.6C27.6067 16.8667 28.12 17 28.68 17C29.24 17 29.7467 16.8667 30.2 16.6C30.6667 16.32 31.0333 15.9533 31.3 15.5C31.58 15.0333 31.72 14.52 31.72 13.96V5H33.72V13.96Z" fill="#E12AFB"/>
<path d="M17.14 15C17.14 15.7333 16.96 16.4067 16.6 17.02C16.24 17.62 15.76 18.1 15.16 18.46C14.56 18.82 13.8867 19 13.14 19H0.98V17H13.14C13.7 17 14.1733 16.8067 14.56 16.42C14.9467 16.02 15.14 15.5467 15.14 15C15.14 14.4533 14.9467 13.9867 14.56 13.6C14.1733 13.2 13.7 13 13.14 13H4.98C4.24667 13 3.57333 12.82 2.96 12.46C2.36 12.1 1.88 11.62 1.52 11.02C1.16 10.4067 0.98 9.73333 0.98 9C0.98 8.26667 1.16 7.6 1.52 7C1.88 6.38667 2.36 5.9 2.96 5.54C3.57333 5.18 4.24667 5 4.98 5H16.14V7H4.98C4.43333 7 3.96 7.2 3.56 7.6C3.17333 7.98667 2.98 8.45333 2.98 9C2.98 9.54667 3.17333 10.02 3.56 10.42C3.96 10.8067 4.43333 11 4.98 11H13.14C13.8867 11 14.56 11.18 15.16 11.54C15.76 11.9 16.24 12.3867 16.6 13C16.96 13.6 17.14 14.2667 17.14 15Z" fill="#E12AFB"/>
<rect x="32" y="5" width="5" height="2" fill="#E12AFB"/>
</svg>
