<?xml version="1.0" standalone="no"?>
<!DOCTYPE svg PUBLIC "-//W3C//DTD SVG 20010904//EN"
 "http://www.w3.org/TR/2001/REC-SVG-20010904/DTD/svg10.dtd">
<svg version="1.0" xmlns="http://www.w3.org/2000/svg"
 width="626.000000pt" height="626.000000pt" viewBox="0 0 626.000000 626.000000"
 preserveAspectRatio="xMidYMid meet">

<g transform="translate(0.000000,626.000000) scale(0.100000,-0.100000)"
fill="#000000" stroke="none">
<path d="M2700 5776 c-490 -58 -914 -234 -1261 -524 -399 -335 -666 -840 -730
-1385 -17 -150 -7 -503 20 -652 47 -263 129 -510 246 -740 86 -170 143 -258
312 -483 191 -254 253 -369 291 -536 20 -89 22 -459 4 -681 -16 -188 -60 -664
-68 -727 l-6 -48 1155 0 1155 0 6 88 c21 325 40 463 82 610 29 99 47 130 83
139 14 4 129 -4 255 -16 330 -32 534 -38 616 -17 164 42 261 166 261 330 0 59
-7 89 -42 181 -35 91 -42 123 -43 182 l-1 73 51 49 c57 55 87 118 82 172 -3
30 -9 37 -57 60 l-53 26 46 5 c63 7 93 30 122 91 32 69 30 93 -10 153 -47 70
-63 124 -46 163 16 40 53 61 175 101 55 18 116 41 135 50 49 25 80 84 80 152
0 51 -8 68 -146 314 -81 142 -167 301 -192 353 -61 124 -61 156 -2 281 64 133
63 137 -65 584 -132 462 -180 574 -345 808 -80 114 -275 312 -393 400 -305
226 -657 368 -1077 433 -143 22 -491 28 -640 11z m545 -1171 c268 -56 471
-195 563 -385 58 -120 76 -200 76 -350 1 -273 -88 -424 -384 -650 -213 -162
-255 -225 -267 -398 -5 -73 -8 -83 -27 -87 -12 -3 -120 -4 -241 -3 l-220 3 -3
65 c-4 75 13 212 34 286 35 122 134 239 320 379 123 92 171 144 209 227 65
141 29 331 -79 424 -61 53 -135 76 -241 76 -186 0 -291 -71 -350 -235 -13 -36
-27 -92 -31 -126 l-7 -61 -260 0 -260 0 6 89 c24 373 263 645 649 740 46 11
99 22 118 25 72 9 317 -3 395 -19z m15 -2365 l0 -260 -265 0 -265 0 0 260 0
260 265 0 265 0 0 -260z"/>
</g>
</svg>
